<svg id="svg" version="1.1" xmlns="http://www.w3.org/2000/svg" xmlns:xlink="http://www.w3.org/1999/xlink" width="400" height="400" viewBox="0, 0, 400,400"><g id="svgg"><path id="path0" d="M190.469 30.940 C 79.104 37.837,4.296 147.948,39.201 253.594 C 73.657 357.877,196.836 402.439,290.236 344.411 C 340.078 313.445,369.821 259.721,369.840 200.625 C 369.872 102.484,287.868 24.909,190.469 30.940 M256.847 109.655 C 261.819 111.202,265.579 115.437,266.556 120.591 C 266.765 121.694,266.875 140.678,266.875 175.737 L 266.875 229.202 268.984 227.118 C 273.181 222.971,273.467 223.058,281.325 230.871 C 290.434 239.928,290.803 238.030,277.294 251.587 L 266.837 262.081 266.864 270.806 C 266.906 284.514,265.328 288.426,258.438 291.693 L 256.406 292.656 246.250 292.752 L 236.094 292.847 230.938 297.957 C 226.759 302.098,225.544 303.129,224.531 303.392 C 223.844 303.570,221.102 304.296,218.438 305.005 C 215.773 305.713,212.328 306.630,210.781 307.040 C 209.234 307.451,207.556 307.859,207.050 307.946 C 206.491 308.043,205.450 308.780,204.385 309.834 C 202.613 311.587,201.988 311.863,201.312 311.187 C 200.648 310.523,200.901 309.983,202.812 307.994 C 203.843 306.920,204.611 305.965,204.517 305.872 C 204.424 305.778,205.057 303.048,205.924 299.804 C 206.790 296.560,207.500 293.662,207.500 293.364 C 207.500 292.852,205.138 292.817,165.687 292.739 L 123.874 292.656 121.523 291.494 C 117.764 289.637,114.931 286.231,113.923 282.356 C 113.332 280.090,113.183 122.575,113.769 120.035 C 114.879 115.221,118.615 111.188,123.374 109.666 C 126.210 108.759,253.935 108.748,256.847 109.655 M153.750 138.906 C 146.604 146.039,140.626 151.875,140.466 151.875 C 140.306 151.875,137.351 149.063,133.899 145.625 C 130.446 142.188,127.383 139.375,127.092 139.375 C 126.404 139.375,125.313 140.473,125.313 141.164 C 125.313 141.932,139.701 156.250,140.472 156.250 C 141.648 156.250,168.750 128.777,168.750 127.585 C 168.750 126.604,168.099 125.938,167.142 125.938 C 166.923 125.938,160.896 131.773,153.750 138.906 M174.549 142.257 C 172.747 144.830,170.527 144.688,212.540 144.688 C 252.447 144.688,250.625 144.762,250.625 143.125 C 250.625 141.488,252.453 141.563,212.455 141.563 L 175.035 141.563 174.549 142.257 M153.754 178.906 C 146.613 186.039,140.632 191.875,140.461 191.875 C 140.290 191.875,137.411 189.133,134.063 185.781 C 127.232 178.944,125.313 177.959,125.313 181.292 C 125.313 181.983,139.762 196.250,140.461 196.250 C 141.675 196.250,168.750 168.799,168.750 167.569 C 168.750 166.625,167.987 165.938,166.941 165.938 C 166.828 165.938,160.894 171.773,153.754 178.906 M174.554 182.679 C 173.936 183.296,173.935 183.741,174.549 184.618 L 175.035 185.313 212.226 185.313 C 237.264 185.313,249.614 185.207,250.021 184.989 C 250.706 184.622,250.844 183.157,250.250 182.563 C 249.604 181.916,175.202 182.030,174.554 182.679 M153.594 218.750 C 146.548 225.797,140.647 231.563,140.480 231.563 C 140.313 231.563,137.422 228.820,134.055 225.469 C 129.166 220.602,127.765 219.375,127.099 219.375 C 126.097 219.375,125.113 220.637,125.532 221.385 C 126.258 222.683,139.838 235.938,140.442 235.938 C 140.888 235.938,145.497 231.536,154.923 222.108 C 169.147 207.881,169.514 207.451,168.375 206.313 C 167.239 205.176,166.769 205.571,153.594 218.750 M174.691 223.121 C 173.897 223.916,173.896 224.521,174.688 225.313 C 175.408 226.033,248.689 226.327,250.021 225.614 C 250.671 225.266,250.831 223.934,250.319 223.125 C 249.781 222.273,175.543 222.269,174.691 223.121 " stroke="none" fill="#1975d2" fill-rule="evenodd"></path><path id="path1" d="M271.660 225.234 C 271.117 225.535,257.006 239.529,240.301 256.332 L 209.930 286.883 217.657 294.848 C 221.907 299.228,225.475 302.813,225.586 302.813 C 225.849 302.813,286.423 242.225,286.979 241.406 C 288.634 238.968,288.181 238.131,281.593 231.447 C 274.822 224.577,273.893 223.996,271.660 225.234 " stroke="none" fill="#e39e5c" fill-rule="evenodd"></path><path id="path3" d="M187.344 30.664 C 90.502 38.072,19.312 125.529,31.570 222.031 C 43.501 315.960,130.515 382.237,224.375 368.887 C 308.105 356.977,370.625 285.001,370.625 200.517 C 370.625 101.467,286.073 23.110,187.344 30.664 M216.094 31.407 C 291.496 38.639,352.411 93.731,367.007 167.894 C 370.608 186.189,370.964 209.110,367.935 227.656 C 358.314 286.568,318.657 335.930,263.125 358.115 C 223.289 374.030,177.400 374.039,137.666 358.139 C 60.221 327.149,16.709 244.926,34.714 163.594 C 53.157 80.285,131.374 23.282,216.094 31.407 M123.374 109.666 C 118.615 111.188,114.879 115.221,113.769 120.035 C 113.183 122.575,113.332 280.090,113.923 282.356 C 114.931 286.231,117.764 289.637,121.523 291.494 L 123.874 292.656 165.726 292.739 L 207.578 292.821 207.383 293.989 C 207.276 294.631,207.120 295.508,207.037 295.938 C 206.954 296.367,207.083 296.156,207.325 295.469 C 207.567 294.781,207.775 293.832,207.788 293.359 L 207.813 292.500 167.230 292.500 C 141.277 292.500,126.049 292.386,124.987 292.185 C 120.216 291.280,116.271 287.825,114.706 283.180 L 114.058 281.256 114.138 200.377 L 114.219 119.499 115.393 117.122 C 117.346 113.171,120.852 110.506,125.136 109.717 C 127.750 109.235,252.562 109.235,255.177 109.717 C 259.437 110.502,263.200 113.421,265.087 117.406 L 266.094 119.531 266.176 174.469 C 266.230 210.486,266.365 229.341,266.567 229.216 C 266.999 228.949,266.989 122.872,266.556 120.591 C 265.579 115.437,261.819 111.202,256.847 109.655 C 253.935 108.748,126.210 108.759,123.374 109.666 M153.594 138.438 C 146.548 145.484,140.647 151.250,140.480 151.250 C 140.313 151.250,137.422 148.508,134.055 145.156 C 128.710 139.836,127.809 139.063,126.953 139.063 C 125.835 139.063,125.000 139.987,125.000 141.226 C 125.000 142.493,139.182 156.563,140.459 156.563 C 141.748 156.563,169.375 129.075,169.375 127.793 C 169.375 126.540,168.542 125.625,167.403 125.625 C 166.503 125.625,165.125 126.904,153.594 138.438 M168.146 126.261 C 168.550 126.477,168.750 126.916,168.750 127.585 C 168.750 128.777,141.648 156.250,140.472 156.250 C 139.701 156.250,125.313 141.932,125.313 141.164 C 125.313 140.473,126.404 139.375,127.092 139.375 C 127.383 139.375,130.446 142.188,133.899 145.625 C 137.351 149.063,140.306 151.875,140.466 151.875 C 140.626 151.875,146.604 146.039,153.750 138.906 C 160.896 131.773,166.923 125.938,167.142 125.938 C 167.362 125.938,167.813 126.083,168.146 126.261 M174.578 141.581 C 173.467 142.455,173.465 143.793,174.573 144.665 C 175.396 145.312,175.436 145.313,212.556 145.313 L 249.716 145.313 250.483 144.545 C 251.405 143.624,251.455 142.822,250.653 141.831 L 250.055 141.094 212.731 141.012 L 175.406 140.930 174.578 141.581 M250.250 141.938 C 250.733 142.421,250.733 143.829,250.250 144.312 C 249.581 144.981,175.376 144.842,174.634 144.170 C 173.936 143.538,173.919 143.157,174.549 142.257 L 175.035 141.563 212.455 141.563 C 241.143 141.563,249.963 141.650,250.250 141.938 M153.598 178.438 C 146.543 185.484,140.637 191.250,140.474 191.250 C 140.310 191.250,137.422 188.508,134.055 185.156 C 127.523 178.654,126.999 178.314,125.625 179.688 C 124.222 181.090,124.515 181.514,132.257 189.282 C 138.551 195.596,139.640 196.563,140.465 196.563 C 141.302 196.563,143.086 194.891,155.395 182.570 C 170.330 167.621,170.236 167.736,168.750 166.250 C 167.272 164.772,167.297 164.753,153.598 178.438 M167.948 166.242 C 168.583 166.484,168.750 166.760,168.750 167.569 C 168.750 168.799,141.675 196.250,140.461 196.250 C 139.762 196.250,125.313 181.983,125.313 181.292 C 125.313 177.959,127.232 178.944,134.063 185.781 C 137.411 189.133,140.290 191.875,140.461 191.875 C 140.632 191.875,146.613 186.039,153.754 178.906 C 160.894 171.773,166.828 165.938,166.941 165.938 C 167.054 165.938,167.508 166.075,167.948 166.242 M174.375 182.188 C 173.558 183.005,173.573 184.431,174.408 185.186 C 175.047 185.764,176.128 185.781,212.560 185.781 L 250.055 185.781 250.653 185.044 C 251.485 184.015,251.402 182.978,250.427 182.210 C 249.150 181.206,175.379 181.184,174.375 182.188 M250.250 182.563 C 250.844 183.157,250.706 184.622,250.021 184.989 C 249.614 185.207,237.264 185.313,212.226 185.313 L 175.035 185.313 174.549 184.618 C 173.935 183.741,173.936 183.296,174.554 182.679 C 175.202 182.030,249.604 181.916,250.250 182.563 M153.442 218.280 L 140.461 231.248 134.542 225.323 C 128.047 218.821,127.312 218.302,125.996 219.284 C 124.152 220.661,124.451 221.122,132.307 229.046 C 136.380 233.154,139.791 236.342,140.230 236.453 C 140.919 236.626,142.521 235.128,155.189 222.460 C 170.362 207.286,170.218 207.463,168.652 205.992 C 167.144 204.576,167.234 204.503,153.442 218.280 M168.375 206.313 C 169.514 207.451,169.147 207.881,154.923 222.108 C 145.497 231.536,140.888 235.938,140.442 235.938 C 139.838 235.938,126.258 222.683,125.532 221.385 C 125.113 220.637,126.097 219.375,127.099 219.375 C 127.765 219.375,129.166 220.602,134.055 225.469 C 137.422 228.820,140.313 231.563,140.480 231.563 C 140.647 231.563,146.548 225.797,153.594 218.750 C 166.769 205.571,167.239 205.176,168.375 206.313 M174.375 222.813 C 174.031 223.156,173.750 223.789,173.750 224.219 C 173.750 226.411,170.676 226.250,212.500 226.250 C 254.324 226.250,251.250 226.411,251.250 224.219 C 251.250 222.026,254.324 222.188,212.500 222.188 C 175.417 222.188,174.993 222.194,174.375 222.813 M250.319 223.125 C 250.831 223.934,250.671 225.266,250.021 225.614 C 248.689 226.327,175.408 226.033,174.688 225.313 C 173.896 224.521,173.897 223.916,174.691 223.121 C 175.543 222.269,249.781 222.273,250.319 223.125 M266.494 262.813 C 266.370 263.070,266.230 267.570,266.182 272.813 L 266.094 282.344 265.105 284.431 C 263.956 286.856,262.151 288.932,259.982 290.324 C 257.088 292.181,256.370 292.291,245.781 292.507 L 236.094 292.705 246.250 292.681 L 256.406 292.656 258.438 291.693 C 262.599 289.720,265.769 285.641,266.570 281.230 C 266.922 279.289,266.851 262.067,266.494 262.813 M205.964 299.557 C 205.762 300.358,205.655 301.072,205.727 301.144 C 205.799 301.215,206.022 300.619,206.224 299.818 C 206.426 299.017,206.532 298.303,206.460 298.231 C 206.389 298.160,206.165 298.756,205.964 299.557 M204.714 304.245 C 204.512 305.046,204.405 305.760,204.477 305.831 C 204.549 305.903,204.772 305.306,204.974 304.505 C 205.176 303.704,205.282 302.990,205.210 302.919 C 205.139 302.847,204.915 303.444,204.714 304.245 " stroke="none" fill="#2195f3" fill-rule="evenodd"></path><path id="path3" d="M238.088 257.935 C 213.903 282.250,209.424 286.889,209.240 287.813 C 209.120 288.414,208.759 289.891,208.437 291.094 C 207.108 296.065,204.688 305.513,204.688 305.728 C 204.688 305.855,204.969 305.809,205.313 305.625 C 206.356 305.066,207.298 305.773,207.065 306.940 C 206.893 307.800,206.940 307.869,207.579 307.709 C 207.965 307.612,212.164 306.506,216.909 305.251 L 225.538 302.969 217.710 294.903 L 209.883 286.838 233.302 263.341 C 262.065 234.483,267.041 229.432,266.860 229.274 C 266.782 229.206,253.835 242.103,238.088 257.935 M251.249 277.357 C 242.742 285.872,236.000 292.758,236.268 292.659 C 237.200 292.315,267.401 261.875,266.811 261.875 C 266.759 261.875,259.756 268.842,251.249 277.357 " stroke="none" fill="#d7c6bb" fill-rule="evenodd"></path><path id="path4" d="M271.719 224.822 C 271.203 225.055,269.867 226.203,268.750 227.373 L 266.719 229.501 269.108 227.283 C 273.339 223.354,273.675 223.464,281.461 231.334 C 289.981 239.947,290.383 238.095,277.073 251.563 L 266.728 262.031 277.115 251.719 C 290.764 238.170,290.352 239.980,281.763 231.294 C 274.885 224.337,274.024 223.782,271.719 224.822 M230.621 298.047 L 225.781 302.969 230.703 298.129 C 235.276 293.632,235.766 293.125,235.543 293.125 C 235.498 293.125,233.283 295.340,230.621 298.047 M203.414 307.388 C 201.115 309.608,200.664 310.388,201.262 311.109 C 201.932 311.916,202.614 311.589,204.922 309.358 C 207.251 307.105,207.652 306.208,206.583 305.636 C 205.699 305.163,205.747 305.136,203.414 307.388 " stroke="none" fill="#736b69" fill-rule="evenodd"></path></g></svg>