<svg id="svg" version="1.1" xmlns="http://www.w3.org/2000/svg" xmlns:xlink="http://www.w3.org/1999/xlink" width="400" height="400" viewBox="0, 0, 400,400"><g id="svgg"><path id="path0" d="M68.970 57.958 C 65.855 59.373,66.000 57.775,66.001 90.660 C 66.003 123.532,65.825 121.667,69.109 123.098 C 71.696 124.224,209.241 124.130,211.155 123.000 C 214.141 121.237,214.000 122.850,214.000 90.461 C 214.000 57.903,214.131 59.312,210.974 57.814 C 208.776 56.771,71.276 56.910,68.970 57.958 M124.913 74.795 C 139.791 80.405,138.252 103.203,122.754 106.776 C 112.008 109.253,102.409 101.527,102.409 90.400 C 102.409 78.390,113.694 70.564,124.913 74.795 M190.016 74.242 C 196.083 76.044,199.754 82.343,195.376 83.442 C 192.743 84.103,190.079 83.419,188.462 81.667 C 186.099 79.108,182.800 79.613,182.800 82.534 C 182.800 84.698,183.681 85.409,188.862 87.424 C 197.394 90.743,200.360 95.458,197.654 101.400 C 194.015 109.390,178.699 109.003,175.013 100.828 C 173.022 96.413,179.677 94.923,183.380 98.956 C 186.070 101.886,189.733 101.331,189.733 97.992 C 189.733 96.199,188.341 95.034,184.469 93.585 C 176.314 90.534,174.004 88.242,174.004 83.200 C 174.004 76.187,181.827 71.810,190.016 74.242 M88.654 75.006 C 89.086 75.597,89.200 78.210,89.200 87.545 C 89.200 101.811,88.801 100.800,94.433 100.800 C 99.278 100.800,101.189 102.869,99.219 105.983 C 98.440 107.214,82.369 107.230,81.588 106.000 C 81.359 105.640,81.245 99.322,81.303 90.212 L 81.400 75.023 82.400 74.495 C 83.878 73.714,87.953 74.047,88.654 75.006 M160.647 74.592 C 164.528 75.744,169.600 80.554,169.600 83.082 C 169.600 85.635,163.445 86.142,160.855 83.802 C 153.727 77.362,144.546 84.264,147.410 93.908 C 149.222 100.011,156.827 102.156,161.500 97.883 C 163.661 95.908,162.409 94.400,158.609 94.400 C 154.908 94.400,154.000 93.809,154.000 91.400 C 154.000 88.594,154.546 88.400,162.427 88.400 C 170.697 88.400,170.601 88.339,170.598 93.543 C 170.590 109.274,145.654 112.368,140.007 97.337 C 134.743 83.323,146.483 70.385,160.647 74.592 M50.600 79.993 C 41.254 80.530,35.170 84.794,32.324 92.800 L 31.400 95.400 31.290 193.600 C 31.215 260.036,31.314 292.706,31.595 294.600 C 32.734 302.271,38.823 308.801,46.283 310.351 C 49.332 310.985,352.537 311.009,354.887 310.377 C 361.224 308.670,366.696 303.154,368.356 296.800 C 368.712 295.438,368.799 270.512,368.713 194.400 L 368.600 93.800 367.109 90.677 C 364.482 85.176,359.543 81.265,353.680 80.042 C 350.554 79.390,298.734 79.426,298.080 80.080 C 297.543 80.617,297.414 86.688,297.923 87.489 C 298.162 87.865,304.529 88.004,325.417 88.089 L 352.600 88.200 354.800 89.441 C 357.273 90.836,359.364 93.285,359.982 95.510 C 360.732 98.211,360.544 274.635,359.789 276.851 C 358.953 279.303,357.290 281.202,354.742 282.613 L 352.600 283.800 200.000 283.800 L 47.400 283.800 45.579 282.948 C 43.384 281.921,41.480 280.089,40.285 277.854 L 39.400 276.200 39.400 186.000 L 39.400 95.800 40.580 93.671 C 43.065 89.184,45.064 88.331,53.800 88.032 L 60.600 87.800 60.600 83.800 L 60.600 79.800 58.000 79.759 C 56.570 79.736,53.240 79.842,50.600 79.993 M115.208 82.100 C 108.842 85.353,108.784 95.542,115.115 98.665 C 121.844 101.985,128.252 96.409,127.035 88.293 C 126.208 82.781,120.118 79.591,115.208 82.100 M204.249 289.129 C 212.870 293.562,209.687 306.796,200.000 306.796 C 189.607 306.796,187.224 292.212,197.023 288.573 C 199.023 287.830,202.198 288.075,204.249 289.129 M197.953 293.801 C 196.322 294.687,195.438 296.898,196.015 298.646 C 196.886 301.284,200.413 302.449,202.517 300.794 C 206.564 297.611,202.473 291.345,197.953 293.801 M160.269 316.265 C 159.619 316.914,159.972 345.104,160.633 345.357 C 160.981 345.491,178.977 345.600,200.625 345.600 L 239.985 345.600 240.204 344.700 C 240.325 344.205,240.373 337.590,240.312 330.000 L 240.200 316.200 200.369 316.098 C 178.461 316.042,160.416 316.117,160.269 316.265 M156.172 351.328 C 156.060 351.621,156.020 353.557,156.084 355.630 L 156.200 359.400 206.514 359.502 L 256.827 359.603 256.714 355.302 L 256.600 351.000 206.488 350.898 C 165.110 350.815,156.341 350.890,156.172 351.328 " stroke="none" fill="#999999" fill-rule="evenodd"></path><path id="path1" d="M88.100 57.097 C 89.805 57.172,92.595 57.172,94.300 57.097 C 96.005 57.022,94.610 56.961,91.200 56.961 C 87.790 56.961,86.395 57.022,88.100 57.097 M103.700 57.097 C 105.405 57.172,108.195 57.172,109.900 57.097 C 111.605 57.022,110.210 56.961,106.800 56.961 C 103.390 56.961,101.995 57.022,103.700 57.097 M119.300 57.097 C 121.005 57.172,123.795 57.172,125.500 57.097 C 127.205 57.022,125.810 56.961,122.400 56.961 C 118.990 56.961,117.595 57.022,119.300 57.097 M134.900 57.097 C 136.605 57.172,139.395 57.172,141.100 57.097 C 142.805 57.022,141.410 56.961,138.000 56.961 C 134.590 56.961,133.195 57.022,134.900 57.097 M150.500 57.097 C 152.205 57.172,154.995 57.172,156.700 57.097 C 158.405 57.022,157.010 56.961,153.600 56.961 C 150.190 56.961,148.795 57.022,150.500 57.097 M166.100 57.097 C 167.805 57.172,170.595 57.172,172.300 57.097 C 174.005 57.022,172.610 56.961,169.200 56.961 C 165.790 56.961,164.395 57.022,166.100 57.097 M181.700 57.097 C 183.405 57.172,186.195 57.172,187.900 57.097 C 189.605 57.022,188.210 56.961,184.800 56.961 C 181.390 56.961,179.995 57.022,181.700 57.097 M197.300 57.097 C 199.005 57.172,201.795 57.172,203.500 57.097 C 205.205 57.022,203.810 56.961,200.400 56.961 C 196.990 56.961,195.595 57.022,197.300 57.097 M65.751 67.600 C 65.751 70.130,65.816 71.165,65.896 69.900 C 65.975 68.635,65.975 66.565,65.896 65.300 C 65.816 64.035,65.751 65.070,65.751 67.600 M84.100 74.287 C 84.705 74.378,85.695 74.378,86.300 74.287 C 86.905 74.195,86.410 74.120,85.200 74.120 C 83.990 74.120,83.495 74.195,84.100 74.287 M65.758 82.200 C 65.758 85.280,65.821 86.487,65.897 84.882 C 65.973 83.278,65.973 80.758,65.896 79.282 C 65.819 77.807,65.757 79.120,65.758 82.200 M106.975 78.500 L 105.800 79.800 107.100 78.625 C 108.312 77.530,108.584 77.200,108.275 77.200 C 108.206 77.200,107.621 77.785,106.975 78.500 M60.928 84.400 C 60.928 85.830,61.001 86.415,61.089 85.700 C 61.178 84.985,61.178 83.815,61.089 83.100 C 61.001 82.385,60.928 82.970,60.928 84.400 M159.600 82.525 C 159.600 82.594,160.185 83.179,160.900 83.825 L 162.200 85.000 161.025 83.700 C 159.930 82.488,159.600 82.216,159.600 82.525 M191.900 83.489 C 192.615 83.578,193.785 83.578,194.500 83.489 C 195.215 83.401,194.630 83.328,193.200 83.328 C 191.770 83.328,191.185 83.401,191.900 83.489 M170.524 93.400 C 170.526 94.720,170.601 95.212,170.690 94.493 C 170.779 93.774,170.777 92.694,170.686 92.093 C 170.595 91.492,170.522 92.080,170.524 93.400 M65.758 97.800 C 65.758 100.880,65.821 102.087,65.897 100.482 C 65.973 98.878,65.973 96.358,65.896 94.882 C 65.819 93.407,65.757 94.720,65.758 97.800 M53.800 93.175 C 47.744 93.418,46.991 93.648,45.528 95.699 L 44.600 97.000 44.600 186.031 L 44.600 275.062 45.696 276.499 C 47.584 278.975,47.140 278.939,76.000 278.971 L 102.200 279.000 102.301 204.242 C 102.375 149.318,102.283 129.341,101.952 128.942 C 101.587 128.502,98.478 128.400,85.497 128.400 C 67.556 128.400,67.347 128.373,64.404 125.728 C 61.083 122.742,61.050 122.569,60.810 106.805 C 60.629 94.921,60.517 93.006,60.000 92.980 C 59.670 92.963,56.880 93.051,53.800 93.175 M297.843 93.433 C 297.336 94.753,297.571 278.211,298.080 278.720 C 298.444 279.084,304.966 279.200,324.986 279.200 C 354.977 279.200,353.363 279.373,355.103 275.979 L 356.007 274.216 355.903 185.608 C 355.787 85.698,356.110 95.312,352.806 93.545 C 350.817 92.481,298.249 92.374,297.843 93.433 M156.691 94.289 C 157.401 94.377,158.661 94.379,159.491 94.292 C 160.321 94.205,159.740 94.133,158.200 94.131 C 156.660 94.129,155.981 94.200,156.691 94.289 M177.507 97.090 C 178.226 97.179,179.306 97.177,179.907 97.086 C 180.508 96.995,179.920 96.922,178.600 96.924 C 177.280 96.926,176.788 97.001,177.507 97.090 M368.997 195.400 C 368.997 249.740,369.043 271.911,369.100 244.668 C 369.157 217.425,369.157 172.965,369.100 145.868 C 369.043 118.771,368.997 141.060,368.997 195.400 M107.000 102.400 C 107.859 103.280,108.652 104.000,108.762 104.000 C 108.872 104.000,108.259 103.280,107.400 102.400 C 106.541 101.520,105.748 100.800,105.638 100.800 C 105.528 100.800,106.141 101.520,107.000 102.400 M166.378 102.700 L 165.000 104.200 166.500 102.822 C 167.325 102.063,168.000 101.388,168.000 101.322 C 168.000 101.016,167.662 101.304,166.378 102.700 M142.400 101.725 C 142.400 101.794,142.985 102.379,143.700 103.025 L 145.000 104.200 143.825 102.900 C 142.730 101.688,142.400 101.416,142.400 101.725 M65.755 113.000 C 65.756 115.860,65.820 116.978,65.897 115.483 C 65.974 113.989,65.974 111.649,65.896 110.283 C 65.818 108.918,65.755 110.140,65.755 113.000 M93.500 123.893 C 94.435 123.977,95.965 123.977,96.900 123.893 C 97.835 123.809,97.070 123.740,95.200 123.740 C 93.330 123.740,92.565 123.809,93.500 123.893 M109.100 123.893 C 110.035 123.977,111.565 123.977,112.500 123.893 C 113.435 123.809,112.670 123.740,110.800 123.740 C 108.930 123.740,108.165 123.809,109.100 123.893 M124.700 123.893 C 125.635 123.977,127.165 123.977,128.100 123.893 C 129.035 123.809,128.270 123.740,126.400 123.740 C 124.530 123.740,123.765 123.809,124.700 123.893 M140.300 123.893 C 141.235 123.977,142.765 123.977,143.700 123.893 C 144.635 123.809,143.870 123.740,142.000 123.740 C 140.130 123.740,139.365 123.809,140.300 123.893 M155.900 123.893 C 156.835 123.977,158.365 123.977,159.300 123.893 C 160.235 123.809,159.470 123.740,157.600 123.740 C 155.730 123.740,154.965 123.809,155.900 123.893 M171.500 123.893 C 172.435 123.977,173.965 123.977,174.900 123.893 C 175.835 123.809,175.070 123.740,173.200 123.740 C 171.330 123.740,170.565 123.809,171.500 123.893 M187.891 123.889 C 188.601 123.977,189.861 123.979,190.691 123.892 C 191.521 123.805,190.940 123.733,189.400 123.731 C 187.860 123.729,187.181 123.800,187.891 123.889 M204.112 123.895 C 205.164 123.977,206.784 123.976,207.712 123.892 C 208.640 123.808,207.780 123.741,205.800 123.742 C 203.820 123.743,203.060 123.812,204.112 123.895 M124.500 283.900 C 166.025 283.956,233.975 283.956,275.500 283.900 C 317.025 283.844,283.050 283.798,200.000 283.798 C 116.950 283.798,82.975 283.844,124.500 283.900 M199.100 288.282 C 199.595 288.378,200.405 288.378,200.900 288.282 C 201.395 288.187,200.990 288.109,200.000 288.109 C 199.010 288.109,198.605 288.187,199.100 288.282 M127.333 311.100 C 167.335 311.156,232.675 311.156,272.533 311.100 C 312.390 311.044,279.660 310.998,199.800 310.998 C 119.940 310.998,87.330 311.044,127.333 311.100 M189.530 315.900 C 198.841 315.960,213.961 315.960,223.130 315.900 C 232.298 315.840,224.680 315.791,206.200 315.791 C 187.720 315.791,180.218 315.840,189.530 315.900 " stroke="none" fill="#63b8e3" fill-rule="evenodd"></path><path id="path2" d="M180.400 23.192 L 120.600 23.400 120.600 37.600 L 120.600 51.800 166.000 52.000 C 216.743 52.224,212.776 51.976,215.919 55.119 C 219.357 58.557,219.239 57.232,219.112 91.147 L 219.000 121.000 217.800 123.186 C 216.424 125.693,213.920 127.775,211.498 128.427 C 210.319 128.745,196.880 128.895,165.615 128.938 C 141.297 128.972,121.175 129.146,120.900 129.324 C 120.323 129.697,120.144 278.194,120.720 278.550 C 120.895 278.659,159.640 278.785,206.820 278.829 L 292.600 278.911 292.701 172.579 C 292.781 88.229,292.699 66.185,292.305 65.941 C 292.032 65.772,282.806 65.742,271.804 65.874 C 252.024 66.110,251.789 66.104,250.800 65.290 L 249.800 64.467 249.800 43.733 L 249.800 23.000 245.000 22.992 C 242.360 22.988,213.290 23.078,180.400 23.192 M255.024 27.561 C 254.257 28.802,255.348 60.350,256.165 60.537 C 258.269 61.018,288.400 60.794,288.400 60.297 C 288.400 59.789,256.027 27.200,255.522 27.200 C 255.371 27.200,255.147 27.362,255.024 27.561 M146.640 135.106 C 149.168 136.794,148.437 138.063,140.077 146.490 L 132.647 153.980 140.324 161.723 C 148.290 169.758,148.656 170.301,147.266 172.018 C 145.502 174.196,144.652 173.644,135.115 164.125 C 130.308 159.326,126.276 155.014,126.155 154.543 C 125.767 153.033,126.967 151.564,135.506 143.100 C 144.060 134.620,144.953 133.979,146.640 135.106 M170.069 135.462 C 171.396 136.663,170.863 138.439,164.090 155.390 C 156.714 173.851,156.542 174.151,154.105 172.788 C 151.805 171.501,151.797 171.532,159.030 153.303 C 166.682 134.019,167.325 132.979,170.069 135.462 M188.309 143.680 C 199.739 155.097,199.692 152.855,188.733 163.858 C 179.530 173.097,178.583 173.789,176.875 172.520 C 174.378 170.664,174.773 169.961,182.974 161.658 C 187.058 157.523,190.400 153.979,190.400 153.783 C 190.400 153.587,187.070 150.080,183.000 145.989 C 175.154 138.104,174.647 137.316,176.262 135.531 C 177.983 133.630,178.803 134.185,188.309 143.680 M271.606 189.524 C 272.692 190.404,272.777 192.121,271.788 193.213 C 271.051 194.028,128.570 194.502,127.360 193.694 C 125.972 192.767,125.757 191.216,126.829 189.854 L 127.658 188.800 199.185 188.800 C 267.619 188.800,270.750 188.831,271.606 189.524 M271.511 206.223 C 273.149 207.370,272.658 210.018,270.666 210.775 C 268.722 211.514,129.064 211.357,127.627 210.614 C 125.734 209.635,125.667 207.100,127.505 206.029 C 128.800 205.275,270.429 205.465,271.511 206.223 M270.937 222.844 C 273.066 223.814,273.088 226.806,270.973 227.610 C 270.295 227.868,245.016 227.970,198.730 227.903 L 127.529 227.800 126.765 226.856 C 125.738 225.588,125.802 224.562,126.982 223.382 L 127.964 222.400 198.963 222.400 C 250.145 222.400,270.234 222.524,270.937 222.844 M271.870 240.563 C 272.951 241.820,272.839 242.961,271.521 244.100 C 270.756 244.761,266.730 244.800,199.185 244.800 L 127.658 244.800 126.829 243.746 C 124.971 241.383,126.255 239.668,130.000 239.510 C 131.430 239.449,163.720 239.411,201.755 239.424 L 270.910 239.447 271.870 240.563 M271.874 257.368 C 273.415 259.159,272.190 261.575,269.718 261.621 C 251.625 261.961,127.846 261.570,127.365 261.171 C 125.683 259.775,125.916 257.011,127.751 256.599 C 129.440 256.221,133.643 256.201,201.774 256.246 L 270.949 256.292 271.874 257.368 " stroke="none" fill="#f8af24" fill-rule="evenodd"></path><path id="path3" d="M107.382 23.302 C 107.276 23.578,107.237 30.193,107.295 38.002 L 107.400 52.200 159.200 52.400 C 210.636 52.599,211.013 52.606,212.800 53.433 C 214.803 54.360,216.962 56.598,217.950 58.771 C 218.853 60.756,218.947 119.217,218.052 121.752 C 217.285 123.924,214.960 126.358,212.600 127.459 L 210.600 128.392 159.400 128.402 C 131.240 128.408,107.975 128.555,107.699 128.730 C 107.300 128.984,107.218 144.308,107.299 204.024 L 107.400 279.000 193.800 279.002 L 280.200 279.004 200.400 278.802 L 120.600 278.600 120.499 204.221 C 120.429 152.562,120.526 129.714,120.819 129.421 C 121.108 129.132,135.140 128.981,165.535 128.938 C 196.859 128.895,210.319 128.745,211.498 128.427 C 213.920 127.775,216.424 125.693,217.800 123.186 L 219.000 121.000 219.112 91.147 C 219.239 57.232,219.357 58.557,215.919 55.119 C 212.776 51.976,216.743 52.224,166.000 52.000 L 120.600 51.800 120.600 37.600 L 120.600 23.400 180.400 23.198 L 240.200 22.996 173.887 22.898 C 120.987 22.820,107.536 22.902,107.382 23.302 M250.151 28.400 C 250.151 30.930,250.216 31.965,250.296 30.700 C 250.375 29.435,250.375 27.365,250.296 26.100 C 250.216 24.835,250.151 25.870,250.151 28.400 M260.800 32.200 C 261.546 32.970,262.247 33.600,262.357 33.600 C 262.467 33.600,261.946 32.970,261.200 32.200 C 260.454 31.430,259.753 30.800,259.643 30.800 C 259.533 30.800,260.054 31.430,260.800 32.200 M249.779 49.136 L 249.800 64.471 250.744 65.236 C 251.639 65.960,252.432 65.995,265.944 65.910 L 280.200 65.820 265.914 65.610 C 252.904 65.419,251.564 65.336,250.914 64.686 C 250.262 64.035,250.181 62.657,249.979 48.886 L 249.758 33.800 249.779 49.136 M265.400 36.800 C 266.259 37.680,267.052 38.400,267.162 38.400 C 267.272 38.400,266.659 37.680,265.800 36.800 C 264.941 35.920,264.148 35.200,264.038 35.200 C 263.928 35.200,264.541 35.920,265.400 36.800 M254.893 49.650 L 254.800 60.700 256.050 60.950 C 257.681 61.276,264.344 61.195,267.400 60.812 C 268.818 60.635,267.416 60.595,263.976 60.715 C 260.772 60.826,257.490 60.793,256.682 60.642 L 255.213 60.366 255.100 49.483 L 254.987 38.600 254.893 49.650 M274.700 61.099 C 277.175 61.169,281.225 61.169,283.700 61.099 C 286.175 61.028,284.150 60.971,279.200 60.971 C 274.250 60.971,272.225 61.028,274.700 61.099 M292.997 172.400 C 292.997 230.810,293.043 254.705,293.100 225.500 C 293.157 196.295,293.157 148.505,293.100 119.300 C 293.043 90.095,292.997 113.990,292.997 172.400 M135.506 143.100 C 126.967 151.564,125.767 153.033,126.155 154.543 C 126.276 155.014,130.308 159.326,135.115 164.125 C 144.652 173.644,145.502 174.196,147.266 172.018 C 148.656 170.301,148.290 169.758,140.324 161.723 L 132.647 153.980 140.077 146.490 C 147.722 138.784,148.387 137.880,147.562 136.315 C 145.921 133.198,144.935 133.753,135.506 143.100 M166.483 135.603 C 165.074 137.116,152.280 170.069,152.668 171.188 C 153.222 172.784,154.941 173.545,156.291 172.790 C 157.542 172.090,170.798 139.720,170.799 137.362 C 170.801 135.039,168.052 133.919,166.483 135.603 M176.262 135.531 C 174.647 137.316,175.154 138.104,183.000 145.989 C 187.070 150.080,190.400 153.587,190.400 153.783 C 190.400 153.979,187.058 157.523,182.974 161.658 C 174.773 169.961,174.378 170.664,176.875 172.520 C 178.583 173.789,179.530 173.097,188.733 163.858 C 199.692 152.855,199.739 155.097,188.309 143.680 C 178.803 134.185,177.983 133.630,176.262 135.531 M146.574 135.731 C 148.379 137.052,147.686 138.106,139.850 145.950 C 135.753 150.052,132.400 153.588,132.400 153.808 C 132.400 154.029,135.469 157.267,139.219 161.004 C 147.241 168.999,147.972 169.973,147.030 171.411 C 145.515 173.723,144.595 173.146,135.692 164.300 C 127.512 156.173,126.171 154.550,126.578 153.269 C 126.968 152.039,144.177 135.200,145.044 135.200 C 145.486 135.200,146.174 135.439,146.574 135.731 M169.771 135.829 C 170.866 136.923,170.535 137.991,164.014 154.364 C 156.189 174.014,156.461 173.503,154.409 172.405 C 152.194 171.219,151.951 172.100,160.122 151.681 C 167.143 134.138,167.498 133.555,169.771 135.829 M188.090 143.910 C 195.571 151.391,196.800 152.790,196.800 153.822 C 196.800 154.856,195.550 156.269,187.840 163.951 C 178.350 173.407,178.028 173.627,176.500 171.683 C 175.411 170.297,176.032 169.433,183.633 161.767 C 190.162 155.182,191.206 153.963,190.858 153.334 C 190.634 152.931,187.200 149.362,183.226 145.404 C 175.833 138.042,175.255 137.203,176.629 135.829 C 178.205 134.253,178.977 134.797,188.090 143.910 M126.829 189.854 C 125.757 191.216,125.972 192.767,127.360 193.694 C 128.570 194.502,271.051 194.028,271.788 193.213 C 272.777 192.121,272.692 190.404,271.606 189.524 C 270.750 188.831,267.619 188.800,199.185 188.800 L 127.658 188.800 126.829 189.854 M271.269 189.862 C 272.166 190.674,272.214 192.128,271.371 192.971 C 270.805 193.538,263.705 193.600,199.194 193.600 L 127.645 193.600 127.023 192.711 C 126.200 191.536,126.237 190.963,127.200 190.000 C 128.343 188.857,270.008 188.722,271.269 189.862 M127.505 206.029 C 125.667 207.100,125.734 209.635,127.627 210.614 C 129.064 211.357,268.722 211.514,270.666 210.775 C 272.658 210.018,273.149 207.370,271.511 206.223 C 270.429 205.465,128.800 205.275,127.505 206.029 M271.111 206.623 C 272.157 207.355,272.309 209.245,271.384 210.013 C 270.771 210.522,132.947 210.978,129.073 210.484 C 126.471 210.152,125.533 207.288,127.735 206.399 C 129.475 205.698,270.103 205.917,271.111 206.623 M126.982 223.382 C 125.802 224.562,125.738 225.588,126.765 226.856 L 127.529 227.800 198.730 227.903 C 245.016 227.970,270.295 227.868,270.973 227.610 C 273.088 226.806,273.066 223.814,270.937 222.844 C 270.234 222.524,250.145 222.400,198.963 222.400 L 127.964 222.400 126.982 223.382 M271.133 223.438 C 272.389 224.318,272.201 226.380,270.800 227.085 C 270.008 227.484,255.092 227.589,199.082 227.594 L 128.364 227.600 127.382 226.618 C 126.842 226.078,126.400 225.440,126.400 225.200 C 126.400 224.960,126.842 224.322,127.382 223.782 L 128.364 222.800 199.293 222.800 C 263.591 222.800,270.307 222.860,271.133 223.438 M130.000 239.510 C 126.255 239.668,124.971 241.383,126.829 243.746 L 127.658 244.800 199.185 244.800 C 266.730 244.800,270.756 244.761,271.521 244.100 C 272.839 242.961,272.951 241.820,271.870 240.563 L 270.910 239.447 201.755 239.424 C 163.720 239.411,131.430 239.449,130.000 239.510 M271.520 240.480 C 272.316 241.276,272.090 243.091,271.111 243.777 C 269.533 244.882,128.308 244.708,127.200 243.600 C 126.237 242.637,126.200 242.064,127.023 240.889 L 127.645 240.000 199.343 240.000 C 254.574 240.000,271.150 240.110,271.520 240.480 M130.600 256.305 C 127.525 256.465,126.940 256.696,126.417 257.959 C 125.902 259.201,126.198 260.202,127.365 261.171 C 127.846 261.570,251.625 261.961,269.718 261.621 C 272.190 261.575,273.415 259.159,271.874 257.368 L 270.949 256.292 201.774 256.246 C 163.728 256.221,131.700 256.247,130.600 256.305 M271.371 257.429 C 271.717 257.774,272.000 258.481,272.000 259.000 C 272.000 261.364,277.412 261.200,199.371 261.200 C 128.533 261.200,127.994 261.194,127.200 260.400 C 126.237 259.437,126.200 258.864,127.023 257.689 L 127.645 256.800 199.194 256.800 C 263.705 256.800,270.805 256.862,271.371 257.429 " stroke="none" fill="#f97124" fill-rule="evenodd"></path></g></svg>