<svg id="svg" version="1.1" xmlns="http://www.w3.org/2000/svg" xmlns:xlink="http://www.w3.org/1999/xlink" width="400" height="318.55670103092785" viewBox="0, 0, 400,318.55670103092785"><g id="svgg"><path id="path0" d="M191.395 98.308 C 181.031 105.296,181.433 104.933,183.498 105.439 C 184.335 105.644,186.024 106.099,187.251 106.450 C 192.902 108.068,192.879 108.070,195.860 105.814 C 198.434 103.866,198.920 103.840,200.186 105.578 C 201.451 107.315,203.851 112.293,204.305 114.124 C 207.315 126.244,206.024 133.771,199.100 144.453 C 196.290 148.789,188.869 157.131,187.822 157.131 C 187.317 157.131,187.583 155.651,188.222 154.900 C 188.446 154.637,188.785 153.571,188.976 152.531 C 191.005 141.461,183.733 129.840,168.786 120.265 C 167.372 119.359,165.375 118.069,164.347 117.397 C 162.063 115.903,162.355 116.063,158.936 114.425 C 155.390 112.727,155.600 112.549,161.282 112.439 L 165.896 112.351 165.993 110.289 C 166.046 109.155,166.008 107.900,165.907 107.500 L 165.725 106.773 147.603 106.773 C 132.823 106.773,129.415 106.852,129.125 107.201 C 128.464 107.997,126.960 117.058,126.769 121.396 L 126.693 123.111 133.373 123.047 C 140.952 122.975,140.557 123.060,140.560 121.495 C 140.562 119.800,141.149 117.928,141.679 117.928 C 142.117 117.928,142.496 118.119,146.295 120.247 C 166.137 131.362,173.897 144.112,167.967 155.859 C 164.612 162.505,161.461 165.148,125.299 191.645 C 123.436 193.010,120.693 195.052,119.203 196.183 C 116.554 198.195,110.110 202.960,105.020 206.670 C 100.501 209.964,100.733 209.578,100.911 213.506 C 101.314 222.424,102.476 238.908,103.060 243.984 L 103.426 247.171 104.447 247.270 C 105.009 247.324,105.743 247.222,106.078 247.043 C 106.413 246.863,107.809 246.485,109.180 246.202 C 118.434 244.290,125.436 247.885,124.823 254.232 C 124.724 255.257,124.640 256.491,124.637 256.975 C 124.620 259.773,119.493 266.448,115.697 268.611 C 114.908 269.060,113.187 270.121,111.873 270.967 C 110.558 271.814,109.260 272.507,108.988 272.508 C 108.716 272.509,108.358 272.643,108.191 272.806 C 107.726 273.261,101.681 274.977,99.737 275.206 C 98.786 275.318,97.578 275.471,97.052 275.546 C 90.938 276.418,89.489 276.115,87.613 273.576 C 86.208 271.675,85.569 271.491,84.462 272.669 C 83.554 273.636,83.084 273.663,81.896 272.817 C 81.395 272.460,80.512 272.017,79.934 271.833 C 78.843 271.484,77.581 270.960,75.726 270.085 C 75.129 269.803,73.874 269.514,72.937 269.443 C 70.607 269.266,68.273 268.447,67.739 267.620 C 66.967 266.426,65.916 263.446,66.230 263.342 C 66.402 263.284,66.329 262.669,66.059 261.900 C 65.481 260.257,65.742 251.622,66.450 248.939 C 67.018 246.788,68.063 236.134,67.779 235.395 C 67.512 234.698,67.079 234.856,64.939 236.431 C 64.020 237.108,59.108 240.724,54.024 244.466 C 43.700 252.065,44.395 251.549,37.693 256.574 C 35.003 258.590,30.848 261.673,28.459 263.426 C 23.043 267.400,14.220 273.937,11.474 276.011 C 6.063 280.099,0.633 283.984,0.333 283.984 C 0.106 283.984,0.000 289.493,0.000 301.355 L 0.000 318.725 40.965 318.725 L 81.929 318.725 83.820 316.925 C 84.860 315.934,86.272 314.751,86.957 314.295 C 88.092 313.540,90.024 311.866,95.458 306.932 C 100.311 302.526,102.665 300.476,105.179 298.468 C 106.669 297.277,111.044 293.563,114.900 290.213 C 118.757 286.863,122.428 283.697,123.058 283.177 C 123.688 282.657,127.171 279.649,130.799 276.494 C 134.426 273.339,138.285 269.988,139.374 269.048 C 140.463 268.107,142.645 266.219,144.223 264.851 C 145.801 263.484,149.673 260.149,152.829 257.442 C 155.984 254.734,160.876 250.527,163.699 248.092 C 166.522 245.657,170.677 242.088,172.933 240.159 C 175.188 238.231,178.920 235.004,181.226 232.988 C 183.531 230.972,187.681 227.386,190.447 225.020 C 193.214 222.653,197.284 219.137,199.492 217.205 C 201.700 215.273,205.012 212.405,206.853 210.831 C 208.693 209.258,210.271 207.891,210.359 207.794 C 210.446 207.697,211.952 206.407,213.705 204.928 C 215.458 203.448,219.701 199.784,223.133 196.786 C 245.042 177.649,260.676 171.878,295.735 169.986 C 307.808 169.334,340.269 170.580,341.429 171.739 C 341.705 172.016,338.935 173.388,338.108 173.385 C 337.878 173.384,337.044 173.594,336.255 173.852 C 335.466 174.109,334.417 174.402,333.923 174.502 C 332.518 174.787,332.932 175.289,337.326 178.624 C 341.930 182.119,341.410 181.992,345.976 180.741 C 347.378 180.357,349.243 179.852,350.120 179.620 C 350.996 179.387,353.004 178.823,354.582 178.366 C 356.159 177.909,358.311 177.310,359.363 177.036 C 360.414 176.761,361.992 176.329,362.869 176.075 C 363.745 175.821,365.825 175.258,367.490 174.824 C 369.155 174.390,371.594 173.722,372.908 173.340 C 374.223 172.958,375.622 172.654,376.016 172.664 C 377.292 172.696,376.783 171.860,374.582 170.309 C 373.398 169.475,371.139 167.886,369.562 166.778 C 366.534 164.650,362.392 161.713,356.335 157.396 C 351.782 154.152,352.358 154.204,344.701 156.338 C 340.959 157.380,340.278 157.631,340.156 158.008 C 340.085 158.227,340.290 158.503,340.611 158.622 C 341.713 159.029,344.861 161.400,344.861 161.824 C 344.861 162.301,338.377 162.151,333.433 161.560 C 320.806 160.052,292.628 159.997,279.681 161.455 C 277.402 161.712,274.821 161.998,273.944 162.090 C 270.194 162.486,257.459 164.720,253.949 165.598 C 252.944 165.850,251.764 166.056,251.327 166.056 C 250.890 166.056,249.561 166.428,248.374 166.882 C 245.471 167.993,242.913 168.902,241.753 169.236 C 241.227 169.388,239.826 169.863,238.639 170.293 C 230.158 173.367,248.361 162.740,261.368 157.024 C 269.273 153.549,281.213 149.428,290.199 147.073 C 291.251 146.797,292.841 146.366,293.733 146.115 C 294.625 145.863,295.577 145.657,295.848 145.657 C 296.119 145.657,297.039 145.450,297.892 145.196 C 301.272 144.191,308.740 142.786,320.000 141.039 C 321.841 140.753,324.924 140.251,326.853 139.924 C 335.402 138.473,336.940 138.720,334.540 141.157 C 332.395 143.335,332.428 143.377,337.211 144.545 C 338.175 144.781,340.112 145.291,341.514 145.679 C 346.304 147.006,345.723 147.207,350.438 142.582 C 354.626 138.475,360.277 133.116,361.270 132.311 C 362.340 131.444,361.841 131.260,352.032 128.903 C 351.681 128.819,350.032 128.401,348.367 127.974 C 345.591 127.262,338.814 125.625,333.705 124.431 C 332.566 124.165,330.906 123.741,330.017 123.489 C 325.930 122.331,325.781 122.362,322.733 124.957 C 319.733 127.512,319.412 128.127,321.081 128.127 C 321.675 128.127,323.575 128.504,325.304 128.964 C 327.032 129.424,328.771 129.872,329.168 129.958 C 331.567 130.482,330.099 130.909,324.622 131.282 C 322.343 131.436,319.904 131.712,319.203 131.893 C 318.502 132.075,316.207 132.454,314.104 132.735 C 300.333 134.576,284.326 137.889,274.104 141.014 C 273.315 141.256,271.163 141.906,269.323 142.460 C 265.380 143.645,262.541 144.603,261.147 145.216 C 260.595 145.459,259.990 145.657,259.803 145.657 C 259.617 145.657,258.993 145.865,258.417 146.119 C 257.842 146.374,256.080 147.036,254.502 147.591 C 252.924 148.146,251.203 148.784,250.677 149.008 C 250.151 149.233,248.359 149.952,246.693 150.607 C 243.733 151.771,242.518 152.346,235.398 155.962 C 230.168 158.617,230.385 157.848,236.126 153.377 C 241.208 149.419,249.674 142.654,257.552 136.255 C 260.573 133.801,264.017 131.004,265.205 130.040 C 266.393 129.076,268.630 127.292,270.176 126.075 C 271.723 124.859,274.064 122.914,275.378 121.752 C 276.693 120.590,279.490 118.223,281.594 116.492 C 283.697 114.761,286.232 112.655,287.226 111.812 C 289.505 109.879,289.354 109.852,291.510 112.555 L 293.326 114.831 296.703 114.646 C 300.536 114.436,305.976 113.738,305.976 113.456 C 305.976 113.107,295.539 100.225,294.399 99.168 L 293.589 98.415 289.663 98.793 C 287.504 99.001,284.590 99.311,283.187 99.483 C 280.506 99.810,274.524 100.436,268.367 101.033 C 259.297 101.913,257.827 102.320,259.328 103.536 C 259.686 103.826,260.454 104.742,261.036 105.572 C 262.407 107.531,262.540 107.558,267.585 106.925 C 273.674 106.160,274.044 106.512,270.002 109.229 C 269.015 109.892,267.464 111.097,266.556 111.907 C 265.648 112.716,262.994 114.863,260.660 116.678 C 258.325 118.492,254.969 121.129,253.203 122.538 C 246.150 128.165,227.016 143.029,220.398 148.023 C 218.645 149.346,216.517 151.005,215.670 151.708 C 212.847 154.051,212.828 153.330,215.611 149.566 C 224.784 137.163,226.844 124.505,221.670 112.351 C 220.136 108.748,218.806 106.199,217.953 105.227 C 215.564 102.506,215.970 101.620,219.175 102.563 C 226.220 104.635,225.966 104.638,228.934 102.470 C 230.254 101.506,231.491 100.717,231.683 100.717 C 232.113 100.717,232.146 99.869,231.726 99.609 C 231.433 99.429,225.354 97.897,219.602 96.556 C 218.112 96.208,216.104 95.714,215.139 95.458 C 213.430 95.003,208.792 93.855,204.622 92.853 C 200.534 91.872,201.578 91.441,191.395 98.308 M88.468 218.929 C 88.372 219.085,86.942 220.170,85.291 221.340 C 83.640 222.511,81.771 223.925,81.137 224.483 L 79.986 225.498 80.321 229.960 C 80.937 238.154,81.013 238.357,83.243 237.786 C 84.143 237.555,85.970 237.277,87.301 237.169 L 89.721 236.972 89.905 228.207 C 90.006 223.386,90.027 219.263,89.951 219.044 C 89.792 218.587,88.730 218.505,88.468 218.929 " stroke="none" fill="#ec8e22" fill-rule="evenodd"></path><path id="path1" d="M87.095 35.418 C 83.255 37.401,81.062 39.219,80.646 40.766 L 80.308 42.022 74.960 41.841 C 60.414 41.349,51.127 48.971,50.135 62.216 C 49.396 72.073,57.636 83.752,66.614 85.573 C 68.584 85.973,69.163 86.541,69.163 88.074 C 69.163 90.426,68.918 90.555,63.882 90.851 C 52.903 91.495,50.142 92.626,44.559 98.767 C 32.706 111.803,30.772 114.502,30.991 117.697 C 31.222 121.052,32.562 122.039,46.693 129.254 C 58.282 135.171,58.658 135.424,56.886 136.098 C 54.004 137.194,48.556 141.722,48.267 143.261 C 47.538 147.145,52.613 148.260,55.907 144.940 C 59.133 141.688,57.749 150.879,54.480 154.415 C 51.483 157.657,50.934 159.178,52.140 160.899 C 52.524 161.449,52.593 162.004,52.426 163.217 C 52.136 165.328,52.651 166.559,54.011 167.008 C 55.879 167.624,57.216 166.643,60.495 162.251 C 62.470 159.605,62.404 159.585,63.099 163.028 C 64.508 170.015,65.581 177.606,67.084 191.235 C 67.325 193.426,67.713 196.510,67.945 198.088 C 68.252 200.174,68.367 205.378,68.367 217.172 L 68.367 233.388 67.577 233.905 C 66.064 234.896,59.729 239.479,55.233 242.835 C 47.166 248.857,33.925 258.663,26.773 263.913 C 21.570 267.731,5.590 279.598,2.470 281.959 C 1.461 282.722,0.493 283.347,0.318 283.347 C 0.143 283.347,0.000 283.490,0.000 283.665 C 0.000 284.457,2.503 282.787,11.474 276.011 C 14.220 273.937,23.043 267.400,28.459 263.426 C 30.848 261.673,35.003 258.590,37.693 256.574 C 44.395 251.549,43.700 252.065,54.024 244.466 C 59.108 240.724,64.020 237.108,64.939 236.431 C 67.079 234.856,67.512 234.698,67.779 235.395 C 68.067 236.144,67.014 246.808,66.439 248.968 C 65.574 252.217,65.801 260.638,66.794 262.170 C 68.818 265.291,73.131 266.445,76.414 264.744 C 77.612 264.123,77.600 264.162,76.968 262.940 C 76.527 262.087,75.500 256.418,74.632 250.040 C 74.003 245.420,74.089 246.804,72.665 218.167 C 72.482 214.486,72.279 207.602,72.213 202.869 C 72.148 198.135,71.912 188.511,71.690 181.481 C 71.258 167.835,71.329 166.717,72.738 164.925 C 73.604 163.824,76.071 163.810,77.337 164.899 L 78.215 165.654 77.797 170.078 C 76.847 180.155,77.027 204.316,78.126 214.183 C 78.292 215.673,78.570 218.675,78.744 220.853 C 79.146 225.895,79.247 226.018,81.485 224.195 C 82.450 223.410,84.373 221.973,85.759 221.001 C 87.144 220.030,88.360 219.103,88.461 218.941 C 88.729 218.507,89.790 218.581,89.951 219.044 C 90.027 219.263,90.006 223.386,89.905 228.207 L 89.721 236.972 87.054 237.193 C 85.587 237.315,83.952 237.566,83.421 237.751 C 82.889 237.936,82.118 238.088,81.705 238.088 C 80.825 238.088,80.783 238.462,81.316 241.568 C 82.001 245.565,82.911 246.615,85.050 245.878 C 87.820 244.923,88.873 244.923,89.236 245.878 C 89.696 247.088,89.640 250.464,89.104 253.846 C 86.322 271.400,86.935 273.147,95.874 273.147 C 99.269 273.147,99.724 273.028,103.426 271.162 C 114.839 265.410,124.955 256.948,124.933 253.170 C 124.896 246.691,115.302 243.733,105.526 247.185 C 104.373 247.592,104.050 247.607,103.734 247.267 C 103.275 246.774,102.441 239.167,101.992 231.394 C 101.815 228.327,101.594 225.100,101.500 224.223 C 101.407 223.347,101.205 219.833,101.051 216.414 C 100.722 209.065,100.109 210.290,106.444 205.633 C 115.384 199.061,116.517 198.222,119.203 196.183 C 120.693 195.052,123.436 193.010,125.299 191.645 C 156.382 168.869,162.425 164.080,165.648 159.664 C 169.058 154.991,170.733 149.839,169.556 147.642 C 169.208 146.994,168.924 146.246,168.924 145.981 C 168.922 142.635,162.272 134.617,155.531 129.834 C 146.993 123.775,142.609 122.167,141.496 124.688 C 140.754 126.368,140.081 126.524,133.537 126.529 C 125.815 126.535,125.743 126.489,126.515 122.045 C 126.680 121.096,127.049 118.454,127.333 116.175 C 127.952 111.225,128.638 107.787,129.125 107.201 C 129.746 106.453,165.639 106.580,165.852 107.331 C 165.939 107.637,166.106 109.473,166.223 111.410 C 166.464 115.394,166.423 115.486,164.223 115.849 C 162.474 116.137,162.513 116.307,164.631 117.627 C 172.269 122.387,176.904 125.922,180.516 129.739 C 185.463 134.966,188.344 140.408,188.991 145.744 C 189.453 149.560,190.274 154.037,190.569 154.348 C 191.029 154.835,196.435 148.566,199.100 144.453 C 203.818 137.175,207.025 127.269,205.814 123.716 C 205.536 122.899,205.216 121.657,205.102 120.956 C 204.597 117.828,202.053 112.325,200.068 110.064 C 198.905 108.739,198.205 108.727,195.451 109.981 C 192.977 111.107,192.752 111.098,186.916 109.624 C 181.378 108.225,180.760 107.741,181.622 105.473 C 182.121 104.161,200.487 91.984,201.647 92.197 C 203.071 92.458,211.731 94.551,215.139 95.458 C 216.104 95.714,218.112 96.208,219.602 96.556 C 228.495 98.630,231.583 99.487,231.952 99.984 C 234.481 103.389,227.240 108.290,221.499 107.059 C 219.535 106.637,219.119 106.920,219.794 108.215 C 225.786 119.716,226.082 130.903,220.782 145.497 C 220.336 146.724,220.030 147.786,220.101 147.857 C 220.275 148.031,223.511 145.747,227.410 142.698 C 229.163 141.327,233.394 138.033,236.813 135.377 C 244.747 129.213,249.172 125.747,253.200 122.542 C 254.968 121.135,258.064 118.705,260.080 117.142 C 268.236 110.817,268.326 110.685,264.554 110.533 L 262.176 110.438 260.490 108.254 C 258.945 106.250,258.805 105.929,258.805 104.388 C 258.805 101.947,258.677 101.991,268.526 101.019 C 275.582 100.323,280.697 99.787,283.187 99.483 C 284.590 99.311,287.504 99.001,289.663 98.793 L 293.589 98.415 294.399 99.168 C 294.845 99.582,296.593 101.626,298.282 103.711 C 306.694 114.091,306.451 113.729,306.240 115.579 C 306.097 116.829,305.063 117.122,298.659 117.729 C 292.931 118.271,292.960 118.276,290.876 116.413 C 288.599 114.376,287.643 114.936,273.625 126.530 C 272.223 127.689,269.928 129.573,268.526 130.716 C 252.347 143.902,244.143 150.871,244.143 151.430 C 244.143 151.619,247.239 150.471,250.677 149.007 C 251.203 148.783,252.924 148.146,254.502 147.591 C 256.080 147.036,257.842 146.374,258.417 146.119 C 258.993 145.865,259.617 145.657,259.803 145.657 C 259.990 145.657,260.595 145.459,261.147 145.216 C 262.541 144.603,265.380 143.645,269.323 142.460 C 271.163 141.906,273.315 141.256,274.104 141.014 C 284.242 137.915,299.599 134.727,313.944 132.744 C 315.960 132.466,318.147 132.161,318.803 132.067 C 320.191 131.869,320.503 131.545,319.837 130.993 C 318.499 129.882,319.569 127.651,322.733 124.957 C 325.781 122.361,325.930 122.331,330.017 123.489 C 330.906 123.741,332.566 124.165,333.705 124.431 C 338.814 125.625,345.591 127.262,348.367 127.974 C 350.032 128.401,351.681 128.819,352.032 128.903 C 361.991 131.296,361.753 131.206,361.753 132.608 C 361.753 134.694,358.742 138.164,349.571 146.642 C 345.504 150.402,346.136 150.293,338.841 148.496 C 332.661 146.974,332.270 146.779,331.998 145.076 C 331.876 144.312,331.580 143.732,331.249 143.604 C 330.313 143.245,320.422 144.214,315.219 145.174 C 313.904 145.416,311.466 145.849,309.801 146.135 C 306.807 146.649,305.509 146.911,299.602 148.199 C 293.166 149.602,290.474 150.338,280.797 153.342 C 267.539 157.457,244.488 167.973,253.904 165.611 C 254.934 165.353,256.924 164.922,258.327 164.655 C 260.708 164.202,262.057 163.968,269.482 162.724 C 272.246 162.262,274.432 161.998,281.275 161.302 C 294.269 159.982,314.569 159.989,329.880 161.319 C 332.072 161.509,335.120 161.738,336.653 161.828 L 339.442 161.990 339.442 160.429 C 339.442 158.440,340.065 157.557,341.765 157.136 C 342.503 156.952,343.825 156.598,344.701 156.348 C 352.801 154.038,350.946 153.495,361.912 161.386 C 364.031 162.910,366.566 164.688,373.068 169.209 C 380.513 174.385,379.354 175.403,360.319 180.394 C 359.092 180.716,356.940 181.293,355.538 181.676 C 354.135 182.059,352.271 182.568,351.394 182.808 C 340.929 185.667,341.588 185.697,336.711 182.143 C 332.749 179.255,332.430 178.849,332.430 176.681 C 332.430 175.766,332.290 174.931,332.119 174.826 C 330.341 173.727,299.882 172.894,291.474 173.714 C 289.721 173.885,286.709 174.171,284.781 174.350 C 266.108 176.083,249.361 181.305,237.291 189.158 C 234.379 191.053,230.491 194.182,224.217 199.681 C 221.817 201.785,219.104 204.151,218.188 204.940 C 211.428 210.762,208.443 213.361,192.229 227.543 C 191.110 228.522,188.871 230.470,187.254 231.873 C 184.169 234.547,169.007 247.758,148.845 265.340 C 134.947 277.458,127.338 284.076,123.193 287.649 C 121.567 289.052,118.103 292.062,115.496 294.339 C 112.890 296.616,105.716 302.881,99.555 308.261 C 93.393 313.641,88.257 318.196,88.141 318.384 C 87.664 319.156,91.143 318.772,91.888 317.970 C 92.497 317.315,98.806 311.719,105.950 305.498 C 111.398 300.754,119.776 293.379,123.691 289.880 C 126.045 287.777,128.975 285.187,130.201 284.125 C 131.427 283.063,135.286 279.692,138.777 276.635 C 142.267 273.577,146.793 269.641,148.834 267.888 C 154.054 263.404,164.195 254.545,166.711 252.271 C 170.237 249.083,175.687 244.285,177.263 242.982 C 178.080 242.306,180.434 240.247,182.494 238.406 C 186.279 235.023,187.440 233.997,193.660 228.526 C 195.553 226.861,200.338 222.629,204.293 219.124 C 208.248 215.618,212.988 211.437,214.826 209.834 C 216.664 208.231,221.394 204.090,225.339 200.634 C 236.830 190.562,241.111 187.622,249.949 183.733 C 267.369 176.067,296.003 172.559,323.028 174.780 C 331.564 175.481,331.267 175.381,331.513 177.641 C 331.744 179.768,331.967 180.053,335.228 182.395 C 341.228 186.705,340.798 186.703,356.184 182.508 C 378.182 176.510,377.713 176.698,377.667 173.926 C 377.633 171.935,377.458 171.706,374.343 169.569 C 371.406 167.554,366.012 163.777,361.016 160.237 C 351.313 153.361,352.676 153.856,347.251 155.243 C 345.147 155.781,342.650 156.418,341.701 156.659 C 339.535 157.210,339.094 157.655,338.886 159.501 C 338.699 161.161,337.995 161.779,336.671 161.447 C 335.358 161.118,323.000 160.340,313.625 159.997 C 298.778 159.454,280.953 160.403,268.685 162.390 C 258.732 164.001,257.819 163.905,262.151 161.700 C 276.691 154.302,302.591 147.258,324.700 144.690 C 328.991 144.192,329.993 144.394,331.091 145.978 C 332.126 147.471,332.953 147.835,338.327 149.159 C 346.869 151.264,346.503 151.409,355.632 142.299 L 362.100 135.844 362.006 133.373 L 361.912 130.902 360.478 130.512 C 359.689 130.298,357.681 129.803,356.016 129.413 C 354.351 129.023,352.271 128.508,351.394 128.267 C 350.518 128.027,347.649 127.316,345.020 126.688 C 342.390 126.060,338.518 125.127,336.414 124.615 C 324.293 121.664,325.910 121.628,322.107 124.940 C 319.284 127.399,318.602 128.498,318.659 130.498 C 318.691 131.612,318.304 131.943,316.972 131.941 C 315.176 131.937,301.575 134.145,294.263 135.627 C 287.749 136.948,280.090 138.806,275.219 140.249 C 273.992 140.612,272.558 141.026,272.032 141.169 C 269.768 141.785,262.522 144.196,258.008 145.836 C 256.255 146.473,254.264 147.128,253.584 147.293 C 252.904 147.457,252.068 147.741,251.727 147.924 C 251.385 148.107,250.877 148.169,250.597 148.061 C 249.899 147.793,253.594 144.444,265.020 134.993 C 268.175 132.382,271.976 129.227,273.466 127.981 C 274.956 126.734,276.816 125.217,277.600 124.610 C 278.383 124.003,279.817 122.808,280.787 121.954 C 286.304 117.098,288.034 116.438,291.307 117.947 L 293.562 118.986 297.299 118.596 C 306.685 117.616,306.932 117.525,306.932 115.072 C 306.932 113.676,306.806 113.486,301.681 107.172 C 293.814 97.479,294.189 97.794,290.996 98.199 C 289.857 98.344,287.347 98.612,285.418 98.796 C 283.490 98.979,279.976 99.348,277.610 99.615 C 267.131 100.799,264.860 101.037,262.311 101.220 C 258.735 101.477,258.291 101.782,258.013 104.178 C 257.768 106.288,257.941 106.780,259.676 108.908 C 260.852 110.350,262.957 111.554,264.305 111.554 C 266.276 111.554,265.569 112.368,259.602 116.970 C 257.673 118.457,254.653 120.823,252.890 122.227 C 251.127 123.632,247.840 126.215,245.584 127.968 C 243.329 129.721,240.397 132.016,239.069 133.068 C 233.618 137.385,225.814 143.102,224.968 143.397 C 223.830 143.793,223.785 143.188,224.673 139.442 C 227.055 129.400,226.338 121.550,222.143 111.731 C 220.573 108.057,220.577 108.048,223.799 108.048 C 226.723 108.048,228.894 107.135,231.568 104.782 C 233.940 102.694,233.506 98.805,230.902 98.805 C 230.534 98.805,229.598 98.608,228.822 98.367 C 228.045 98.127,226.335 97.689,225.020 97.394 C 223.705 97.099,221.841 96.659,220.876 96.415 C 219.912 96.171,216.972 95.455,214.343 94.823 C 209.667 93.700,208.103 93.315,204.069 92.295 C 200.741 91.454,200.986 91.352,192.438 97.131 C 188.095 100.068,183.827 102.900,182.954 103.426 C 180.539 104.880,180.176 108.053,182.311 109.041 C 185.905 110.704,192.934 111.826,195.060 111.076 C 198.013 110.034,199.721 110.960,201.524 114.582 C 206.592 124.759,203.964 138.940,195.315 148.085 C 192.887 150.653,192.432 150.479,190.927 146.411 C 188.395 139.565,187.232 137.281,184.359 133.512 C 180.745 128.772,174.383 123.244,167.729 119.061 C 164.459 117.006,164.373 116.881,165.734 116.177 C 167.769 115.124,168.327 112.368,167.057 109.641 C 166.689 108.853,166.385 107.890,166.382 107.501 C 166.368 106.113,166.013 106.092,147.162 106.320 C 127.477 106.558,128.378 106.454,127.988 108.533 C 127.876 109.128,127.515 110.230,127.186 110.982 C 126.843 111.766,126.227 114.940,125.745 118.415 C 124.481 127.512,124.233 127.248,133.915 127.109 L 140.717 127.012 142.056 126.104 C 144.529 124.425,147.597 125.421,153.925 129.956 C 167.588 139.746,171.548 150.834,164.622 159.905 C 160.947 164.717,160.716 164.901,125.737 190.746 C 123.809 192.171,119.291 195.518,115.697 198.184 C 102.718 207.814,100.951 209.084,100.533 209.084 C 100.053 209.084,99.851 208.067,99.647 204.622 C 99.486 201.894,99.007 196.429,98.320 189.482 C 98.060 186.853,97.704 182.908,97.530 180.717 C 97.356 178.526,97.078 175.084,96.913 173.068 C 96.748 171.052,96.457 166.964,96.266 163.984 C 95.803 156.738,95.352 151.163,94.970 147.956 C 94.663 145.387,94.696 144.643,95.609 133.386 C 95.765 131.458,96.042 128.876,96.224 127.649 C 96.406 126.422,96.703 124.199,96.884 122.709 C 97.778 115.322,97.976 114.165,98.561 112.912 C 99.235 111.465,101.933 108.786,104.439 107.074 C 109.976 103.292,118.545 97.951,122.636 95.734 C 123.816 95.094,124.996 94.400,125.259 94.190 C 125.522 93.981,127.842 92.554,130.415 91.019 C 141.025 84.693,141.757 82.368,135.480 74.927 C 133.618 72.720,121.981 61.667,117.610 57.953 C 111.624 52.869,110.311 51.623,108.317 49.139 C 107.236 47.794,105.629 45.942,104.745 45.024 C 103.861 44.107,102.844 42.752,102.485 42.015 C 101.982 40.982,101.138 40.192,98.805 38.574 C 91.529 33.529,91.019 33.391,87.095 35.418 M94.448 37.193 C 97.733 39.119,96.736 39.471,93.311 37.594 C 92.520 37.160,91.882 37.218,89.721 37.920 C 85.322 39.349,84.241 39.828,82.972 40.910 C 82.214 41.556,81.513 41.379,81.806 40.615 C 81.990 40.135,86.988 37.048,88.985 36.180 C 90.740 35.418,91.734 35.602,94.448 37.193 M94.371 43.184 C 95.495 44.011,96.988 44.977,97.689 45.330 C 100.561 46.773,100.904 48.435,98.587 49.669 C 97.221 50.396,96.654 50.134,95.772 48.367 C 93.650 44.115,90.922 42.832,88.050 44.734 C 86.802 45.561,86.763 45.987,87.825 47.249 C 88.865 48.484,88.757 49.526,87.577 49.662 C 86.684 49.765,85.418 51.049,85.418 51.852 C 85.418 53.565,88.418 55.698,91.633 56.271 C 93.789 56.655,93.937 56.828,94.180 59.250 C 94.603 63.467,94.472 63.503,89.624 60.478 C 83.659 56.757,81.682 54.141,82.528 51.093 C 83.044 49.236,82.975 48.978,81.420 46.976 C 79.346 44.305,79.490 43.526,82.072 43.448 C 83.186 43.414,85.248 42.983,87.012 42.415 C 90.885 41.167,91.756 41.258,94.371 43.184 M92.734 45.455 C 94.174 46.667,95.676 48.982,95.559 49.809 C 95.346 51.310,90.796 50.547,89.705 48.827 C 89.406 48.355,88.785 47.563,88.325 47.067 L 87.490 46.166 88.384 45.394 C 89.626 44.322,91.417 44.347,92.734 45.455 M101.775 58.453 L 106.180 58.878 110.540 63.156 C 112.938 65.508,117.047 69.221,119.671 71.406 C 127.521 77.942,129.390 79.846,128.858 80.762 C 127.144 83.714,111.208 93.433,103.904 95.980 C 94.343 99.315,79.802 94.190,79.573 87.405 L 79.522 85.906 81.875 84.704 C 90.986 80.049,95.100 73.189,95.065 62.709 L 95.050 58.008 96.210 58.018 C 96.848 58.024,99.353 58.220,101.775 58.453 M124.960 73.432 C 134.955 80.250,135.076 81.809,125.955 86.258 C 123.883 87.269,122.252 87.507,123.780 86.576 C 124.106 86.378,125.576 85.084,127.047 83.700 C 130.810 80.162,130.835 80.300,125.498 75.069 C 123.175 72.792,121.590 71.142,121.975 71.401 C 122.359 71.660,123.703 72.574,124.960 73.432 M78.689 87.809 C 79.709 92.633,89.225 98.486,96.049 98.486 C 97.745 98.486,97.111 99.081,94.900 99.566 C 80.147 102.800,77.621 102.524,72.488 97.116 C 69.476 93.942,69.433 93.790,70.920 91.597 C 71.842 90.239,71.922 89.220,71.192 88.106 C 70.502 87.053,70.629 86.966,74.043 86.168 C 78.211 85.194,78.130 85.165,78.689 87.809 M67.832 92.331 C 67.659 93.227,64.411 94.977,62.918 94.979 C 61.295 94.980,60.142 93.983,60.898 93.230 C 62.078 92.054,68.034 91.282,67.832 92.331 M53.309 109.018 C 55.304 112.976,59.109 125.223,58.425 125.486 C 57.406 125.877,41.434 116.646,41.434 115.666 C 41.434 114.805,47.995 109.095,50.515 107.762 C 52.153 106.896,52.264 106.946,53.309 109.018 M44.328 111.138 C 41.635 113.677,40.478 115.135,40.478 115.990 C 40.478 116.446,43.332 118.476,46.534 120.299 C 48.024 121.147,50.175 122.375,51.315 123.026 C 52.454 123.678,54.555 124.814,55.983 125.551 C 59.551 127.390,60.845 129.658,60.869 134.116 C 60.873 134.868,61.145 136.016,61.473 136.666 C 62.129 137.967,62.791 143.303,62.790 147.275 C 62.789 148.603,63.064 151.256,63.401 153.171 C 64.123 157.274,64.361 161.077,63.904 161.206 C 63.729 161.255,63.514 160.755,63.426 160.093 C 63.185 158.269,62.493 158.431,60.799 160.707 C 57.421 165.246,56.406 165.925,54.486 164.932 C 53.086 164.208,53.102 162.901,54.529 161.568 C 55.658 160.513,55.664 160.403,54.661 159.044 C 53.574 157.570,53.634 157.243,55.421 154.884 C 59.440 149.578,59.216 141.473,55.139 144.667 C 53.276 146.127,53.043 146.114,51.798 144.484 C 51.182 143.677,50.677 142.851,50.677 142.650 C 50.677 141.833,56.870 136.733,57.861 136.733 C 58.092 136.733,58.506 136.508,58.781 136.233 C 59.626 135.389,58.894 134.692,54.584 132.233 C 52.348 130.957,48.940 128.965,47.012 127.806 C 45.084 126.648,42.106 124.944,40.394 124.021 C 34.706 120.953,34.323 120.186,36.918 117.068 C 39.609 113.837,46.644 107.733,47.124 108.213 C 47.206 108.295,45.948 109.611,44.328 111.138 M80.728 169.062 C 82.162 171.792,83.084 174.899,84.943 183.267 C 85.391 185.283,85.955 187.793,86.196 188.845 C 87.051 192.570,87.657 195.584,88.313 199.363 C 88.679 201.466,89.186 204.263,89.440 205.578 C 89.695 206.892,89.991 209.991,90.099 212.463 L 90.294 216.958 88.414 218.431 C 79.708 225.250,79.931 225.256,79.517 218.167 C 79.414 216.414,79.132 212.398,78.889 209.243 C 78.042 198.234,78.020 168.730,78.857 167.376 C 79.199 166.822,79.867 167.423,80.728 169.062 M119.678 247.967 C 121.073 248.678,122.528 249.849,122.300 250.077 C 122.218 250.159,121.285 249.718,120.225 249.097 C 119.166 248.476,118.152 247.968,117.973 247.968 C 117.794 247.968,117.559 247.825,117.450 247.649 C 117.121 247.117,118.356 247.292,119.678 247.967 " stroke="none" fill="#afadab" fill-rule="evenodd"></path><path id="path2" d="M88.985 36.180 C 86.988 37.048,81.990 40.135,81.806 40.615 C 81.513 41.379,82.214 41.556,82.972 40.910 C 85.230 38.985,91.929 36.837,93.311 37.594 C 96.736 39.471,97.733 39.119,94.448 37.193 C 91.734 35.602,90.740 35.418,88.985 36.180 M87.012 42.415 C 85.248 42.983,83.186 43.414,82.072 43.448 C 79.490 43.526,79.346 44.305,81.420 46.976 C 82.975 48.978,83.044 49.236,82.528 51.093 C 81.682 54.141,83.659 56.757,89.624 60.478 C 94.472 63.503,94.603 63.467,94.180 59.250 C 93.937 56.828,93.789 56.655,91.633 56.271 C 88.418 55.698,85.418 53.565,85.418 51.852 C 85.418 51.049,86.684 49.765,87.577 49.662 C 88.757 49.526,88.865 48.484,87.825 47.249 C 86.763 45.987,86.802 45.561,88.050 44.734 C 90.922 42.832,93.650 44.115,95.772 48.367 C 96.654 50.134,97.221 50.396,98.587 49.669 C 100.904 48.435,100.561 46.773,97.689 45.330 C 96.988 44.977,95.495 44.011,94.371 43.184 C 91.756 41.258,90.885 41.167,87.012 42.415 M86.614 47.011 C 87.711 48.705,87.293 48.928,85.109 47.813 C 83.115 46.796,83.006 45.893,84.879 45.900 C 85.688 45.903,86.043 46.131,86.614 47.011 M125.498 75.069 C 130.835 80.300,130.810 80.162,127.047 83.700 C 125.576 85.084,124.106 86.378,123.780 86.576 C 122.252 87.507,123.883 87.269,125.955 86.258 C 135.627 81.541,135.320 80.395,121.975 71.401 C 121.590 71.142,123.175 72.792,125.498 75.069 M74.043 86.168 C 70.629 86.966,70.502 87.053,71.192 88.106 C 71.922 89.220,71.842 90.239,70.920 91.597 C 69.433 93.790,69.476 93.942,72.488 97.116 C 77.621 102.524,80.147 102.800,94.900 99.566 C 97.111 99.081,97.745 98.486,96.049 98.486 C 89.225 98.486,79.709 92.633,78.689 87.809 C 78.130 85.165,78.211 85.194,74.043 86.168 M63.108 92.305 C 60.781 92.929,60.236 93.459,61.027 94.333 C 61.948 95.351,63.866 95.192,65.975 93.923 C 69.204 91.981,67.629 91.092,63.108 92.305 M231.952 100.581 C 231.821 100.714,231.713 101.273,231.713 101.823 C 231.713 102.718,231.403 103.047,228.765 104.957 C 225.571 107.270,225.321 107.334,222.311 106.607 C 221.259 106.353,220.064 106.143,219.655 106.140 C 218.579 106.133,218.972 106.856,220.096 106.953 C 220.613 106.997,222.183 107.135,223.586 107.260 L 226.135 107.487 228.526 105.883 C 231.825 103.671,232.417 102.984,232.292 101.520 C 232.237 100.870,232.084 100.447,231.952 100.581 M258.845 104.588 C 258.809 105.915,258.979 106.295,260.490 108.254 L 262.175 110.438 264.872 110.612 C 266.356 110.707,267.706 110.671,267.873 110.532 C 268.039 110.393,266.988 110.279,265.538 110.279 C 262.608 110.279,262.895 110.451,260.503 107.251 C 259.834 106.355,259.219 105.099,259.099 104.382 L 258.885 103.108 258.845 104.588 M181.493 105.974 C 181.098 108.079,181.263 108.188,187.035 109.651 C 192.734 111.095,192.983 111.105,195.451 109.981 C 196.631 109.443,197.942 109.004,198.366 109.004 C 200.373 109.004,204.246 116.086,205.235 121.566 C 205.638 123.801,205.896 124.213,205.896 122.623 C 205.896 119.170,204.514 115.563,201.332 110.711 C 199.278 107.579,198.534 107.411,195.361 109.364 C 193.363 110.593,191.582 110.445,185.063 108.508 C 184.210 108.255,183.247 108.048,182.923 108.048 C 182.122 108.048,181.586 106.939,181.837 105.798 C 181.950 105.282,181.966 104.861,181.872 104.861 C 181.779 104.861,181.608 105.361,181.493 105.974 M45.719 108.905 C 43.858 110.148,38.682 114.949,36.918 117.068 C 34.323 120.186,34.706 120.953,40.394 124.021 C 42.106 124.944,45.084 126.648,47.012 127.806 C 48.940 128.965,52.348 130.957,54.584 132.233 C 58.894 134.692,59.626 135.389,58.781 136.233 C 58.506 136.508,58.092 136.733,57.861 136.733 C 56.870 136.733,50.677 141.833,50.677 142.650 C 50.677 142.851,51.182 143.677,51.798 144.484 C 53.043 146.114,53.276 146.127,55.139 144.667 C 59.216 141.473,59.440 149.578,55.421 154.884 C 53.634 157.243,53.574 157.570,54.661 159.044 C 55.664 160.403,55.658 160.513,54.529 161.568 C 53.102 162.901,53.086 164.208,54.486 164.932 C 56.406 165.925,57.421 165.246,60.799 160.707 C 62.493 158.431,63.185 158.269,63.426 160.093 C 63.514 160.755,63.729 161.255,63.904 161.206 C 64.361 161.077,64.123 157.274,63.401 153.171 C 63.064 151.256,62.789 148.603,62.790 147.275 C 62.791 143.303,62.129 137.967,61.473 136.666 C 61.145 136.016,60.873 134.868,60.869 134.116 C 60.845 129.658,59.551 127.390,55.983 125.551 C 54.555 124.814,52.454 123.678,51.315 123.026 C 50.175 122.375,48.024 121.147,46.534 120.299 C 43.332 118.476,40.478 116.446,40.478 115.990 C 40.478 115.135,41.635 113.677,44.328 111.138 C 47.385 108.256,47.880 107.460,45.719 108.905 M166.070 111.713 C 166.013 111.888,165.936 112.555,165.898 113.195 C 165.790 115.049,165.554 115.378,164.339 115.378 C 163.055 115.378,162.172 115.662,162.384 116.006 C 162.577 116.318,165.604 115.639,166.061 115.182 C 166.262 114.981,166.360 114.098,166.292 113.113 C 166.227 112.168,166.127 111.538,166.070 111.713 M305.833 114.661 C 306.110 116.175,303.756 116.827,295.722 117.465 L 293.276 117.659 291.342 115.881 C 290.278 114.904,289.312 114.104,289.194 114.104 C 288.647 114.104,285.744 116.052,282.581 118.541 C 279.573 120.908,275.952 123.841,259.920 136.894 C 257.287 139.038,253.101 142.518,251.155 144.180 C 250.717 144.554,248.853 146.100,247.012 147.615 C 243.680 150.357,241.253 152.669,241.706 152.669 C 242.269 152.669,244.010 151.564,244.572 150.849 C 245.274 149.957,256.661 140.386,268.526 130.716 C 269.928 129.573,272.223 127.689,273.625 126.530 C 287.643 114.936,288.599 114.376,290.876 116.413 C 292.960 118.276,292.931 118.271,298.659 117.729 C 305.576 117.074,306.107 116.892,306.233 115.139 C 306.290 114.357,306.192 113.785,306.002 113.785 C 305.817 113.785,305.743 114.168,305.833 114.661 M141.580 122.031 C 141.394 122.146,141.069 122.930,140.856 123.774 C 140.341 125.818,140.061 125.896,133.270 125.896 C 127.080 125.896,126.853 125.832,126.853 124.080 C 126.853 123.501,126.709 123.028,126.534 123.028 C 126.359 123.028,126.215 123.593,126.215 124.285 C 126.215 126.393,126.677 126.535,133.537 126.529 C 140.081 126.524,140.754 126.368,141.496 124.688 C 142.357 122.738,144.147 122.989,149.201 125.768 C 159.276 131.309,167.306 139.577,168.949 146.102 C 169.387 147.842,169.880 148.317,169.880 146.999 C 169.880 143.679,164.875 136.340,159.811 132.233 C 153.595 127.193,142.906 121.211,141.580 122.031 M319.567 129.024 C 319.293 130.431,319.975 131.884,320.699 131.436 C 320.861 131.336,320.777 131.088,320.512 130.886 C 320.241 130.679,319.987 129.889,319.933 129.084 L 319.835 127.649 319.567 129.024 M223.946 131.873 C 223.539 134.890,221.243 142.102,219.176 146.853 C 218.547 148.299,218.112 149.482,218.209 149.482 C 218.708 149.482,220.059 148.086,220.151 147.475 C 220.210 147.089,220.737 145.482,221.324 143.904 C 222.991 139.420,224.024 135.519,224.257 132.829 C 224.491 130.124,224.273 129.452,223.946 131.873 M361.116 133.309 C 360.754 134.694,360.083 135.447,353.365 141.994 C 344.798 150.346,346.248 149.752,338.965 147.889 C 332.789 146.308,332.749 146.288,332.749 144.729 C 332.749 142.793,332.538 142.737,326.696 143.107 C 323.847 143.288,321.424 143.493,321.311 143.563 C 321.198 143.633,319.960 143.844,318.561 144.032 C 310.709 145.085,296.607 148.031,288.606 150.288 C 287.554 150.585,286.048 151.011,285.259 151.235 C 282.844 151.921,274.367 154.677,273.097 155.188 C 272.686 155.354,270.988 156.022,269.323 156.674 C 262.226 159.451,251.462 164.546,249.583 166.017 L 248.808 166.624 250.222 166.260 C 251.000 166.060,252.066 165.591,252.591 165.219 C 256.302 162.584,271.113 156.348,280.797 153.342 C 290.474 150.338,293.166 149.602,299.602 148.199 C 305.509 146.911,306.807 146.649,309.801 146.135 C 311.466 145.849,313.904 145.416,315.219 145.174 C 320.422 144.214,330.313 143.245,331.249 143.604 C 331.580 143.732,331.876 144.312,331.998 145.076 C 332.270 146.779,332.661 146.974,338.841 148.496 C 346.135 150.293,345.504 150.402,349.571 146.647 C 356.611 140.150,361.359 135.078,361.598 133.802 C 361.937 131.986,361.561 131.602,361.116 133.309 M61.198 138.970 C 61.409 139.363,61.541 141.864,61.538 145.418 C 61.536 149.407,61.681 151.856,62.002 153.241 C 62.870 156.982,62.528 158.070,60.027 159.536 C 58.458 160.456,57.946 160.357,58.638 159.268 C 60.610 156.163,60.710 155.830,60.711 152.351 C 60.712 149.647,60.594 148.790,60.099 147.888 C 59.762 147.275,59.380 146.007,59.249 145.071 C 59.118 144.135,58.772 143.105,58.480 142.782 C 57.796 142.026,58.086 140.575,59.179 139.275 C 60.112 138.166,60.719 138.075,61.198 138.970 M189.028 152.285 C 188.805 153.563,188.717 154.985,188.833 155.445 L 189.043 156.281 189.800 155.511 L 190.557 154.741 189.995 152.351 L 189.433 149.960 189.028 152.285 M339.635 158.594 C 339.232 159.643,339.422 161.912,339.912 161.912 C 340.290 161.912,340.319 161.745,340.059 161.062 C 339.846 160.500,339.842 159.908,340.048 159.316 C 340.371 158.390,339.977 157.702,339.635 158.594 M72.738 164.925 C 71.329 166.717,71.258 167.835,71.690 181.481 C 71.912 188.511,72.148 198.135,72.213 202.869 C 72.279 207.602,72.482 214.486,72.665 218.167 C 74.089 246.804,74.003 245.420,74.632 250.040 C 75.500 256.418,76.527 262.087,76.968 262.940 C 77.600 264.162,77.612 264.123,76.414 264.744 C 71.174 267.459,66.038 264.017,65.912 257.705 L 65.848 254.502 65.733 257.052 C 65.509 262.028,66.294 263.719,69.613 265.409 C 73.625 267.452,76.885 266.444,82.183 261.518 C 87.771 256.324,88.000 256.327,87.367 261.594 C 86.067 272.408,86.901 273.625,95.618 273.625 L 100.239 273.625 102.506 272.461 C 113.400 266.865,124.969 257.857,124.934 254.997 C 124.931 254.725,124.522 255.147,124.026 255.936 C 121.411 260.093,108.564 269.139,100.308 272.637 C 98.619 273.352,93.232 273.332,90.916 272.602 C 87.834 271.631,87.520 270.953,87.754 265.793 C 87.944 261.614,88.121 260.048,89.104 253.846 C 89.640 250.464,89.696 247.088,89.236 245.878 C 88.873 244.923,87.820 244.923,85.050 245.878 C 83.426 246.437,82.991 246.273,82.256 244.821 C 81.578 243.483,80.811 239.313,81.065 238.344 C 81.160 237.981,81.107 236.950,80.947 236.053 C 80.787 235.156,80.517 232.507,80.347 230.166 C 80.127 227.134,79.898 225.754,79.550 225.369 C 79.210 224.994,78.964 223.619,78.744 220.861 C 78.570 218.678,78.292 215.673,78.126 214.183 C 77.027 204.316,76.847 180.155,77.797 170.078 L 78.215 165.654 77.337 164.899 C 76.071 163.810,73.604 163.824,72.738 164.925 M376.601 173.593 C 376.288 175.197,375.910 175.389,369.721 177.073 C 367.355 177.717,363.769 178.711,361.753 179.282 C 359.737 179.853,357.801 180.393,357.450 180.482 C 357.100 180.571,355.665 180.963,354.263 181.353 C 351.591 182.097,350.624 182.351,345.210 183.737 C 341.135 184.781,341.359 184.843,336.892 181.437 L 333.227 178.643 333.174 176.625 C 333.144 175.516,333.031 174.518,332.921 174.408 C 331.500 172.988,294.872 172.172,286.776 173.381 C 285.595 173.557,283.228 173.855,281.517 174.042 C 258.660 176.543,240.837 183.803,227.049 196.229 C 225.670 197.472,219.594 202.767,213.546 207.995 C 207.498 213.224,201.245 218.655,199.650 220.065 C 195.788 223.481,193.345 225.612,188.808 229.522 C 186.724 231.318,183.290 234.302,181.176 236.154 C 174.408 242.083,161.330 253.463,158.259 256.096 C 155.764 258.234,138.072 273.634,134.980 276.358 C 131.433 279.483,128.133 282.358,124.762 285.259 C 122.622 287.100,117.746 291.331,113.925 294.661 C 110.104 297.992,105.031 302.414,102.652 304.487 C 100.273 306.561,96.462 309.882,94.183 311.867 C 87.559 317.638,86.838 318.325,87.107 318.601 C 87.446 318.949,86.712 319.556,99.481 308.363 C 113.720 295.882,119.464 290.865,123.193 287.649 C 127.338 284.076,134.947 277.458,148.845 265.340 C 169.007 247.758,184.169 234.547,187.254 231.873 C 188.871 230.470,191.110 228.522,192.229 227.543 C 208.443 213.361,211.428 210.762,218.188 204.940 C 219.104 204.151,221.817 201.785,224.217 199.681 C 230.491 194.182,234.379 191.053,237.291 189.158 C 249.361 181.305,266.108 176.083,284.781 174.350 C 286.709 174.171,289.721 173.885,291.474 173.714 C 299.882 172.894,330.341 173.727,332.119 174.826 C 332.290 174.931,332.430 175.766,332.430 176.681 C 332.430 178.849,332.749 179.255,336.711 182.143 C 341.588 185.697,340.929 185.667,351.394 182.808 C 352.271 182.568,354.135 182.059,355.538 181.676 C 356.940 181.293,359.092 180.716,360.319 180.394 C 374.916 176.566,377.180 175.632,376.977 173.515 L 376.858 172.271 376.601 173.593 " stroke="none" fill="#818080" fill-rule="evenodd"></path><path id="path3" d="M83.665 46.215 C 83.366 46.699,83.744 47.117,85.109 47.813 C 87.293 48.928,87.711 48.705,86.614 47.011 C 85.886 45.889,84.156 45.421,83.665 46.215 M228.887 102.483 C 227.595 103.440,226.265 104.223,225.930 104.223 C 225.235 104.223,220.768 103.118,218.673 102.428 C 216.192 101.610,215.764 102.365,217.453 104.579 C 218.546 106.012,219.229 106.245,224.382 106.940 C 226.436 107.217,231.713 103.495,231.713 101.770 C 231.713 100.413,231.664 100.425,228.887 102.483 M259.124 104.471 C 259.124 105.003,259.635 106.052,260.406 107.100 C 262.884 110.472,262.559 110.279,265.758 110.279 L 268.615 110.279 270.527 108.871 C 273.894 106.393,273.563 106.174,267.585 106.925 C 262.471 107.567,262.382 107.546,260.854 105.327 C 259.507 103.371,259.124 103.182,259.124 104.471 M197.291 104.700 C 195.105 107.335,192.566 108.003,188.845 106.922 C 187.968 106.667,186.268 106.171,185.066 105.819 C 182.289 105.006,182.045 105.015,181.812 105.946 C 181.566 106.926,182.159 108.048,182.923 108.048 C 183.247 108.048,184.210 108.255,185.063 108.508 C 191.672 110.472,193.354 110.599,195.474 109.294 C 198.681 107.321,199.656 107.691,202.045 111.785 C 202.636 112.797,203.386 114.014,203.711 114.489 C 204.037 114.964,204.305 115.538,204.308 115.764 C 204.310 115.990,204.465 116.390,204.651 116.653 C 204.918 117.029,204.955 116.961,204.828 116.335 C 203.395 109.302,199.045 102.587,197.291 104.700 M288.618 110.577 C 288.517 110.741,286.250 112.663,283.580 114.848 C 280.910 117.033,277.352 120.018,275.675 121.482 C 273.997 122.946,271.354 125.147,269.801 126.375 C 266.723 128.807,265.727 129.610,257.550 136.255 C 249.723 142.615,241.241 149.394,236.126 153.377 C 230.144 158.036,230.158 158.617,236.178 155.601 C 239.575 153.899,240.929 153.013,242.849 151.233 C 244.175 150.004,246.406 148.069,247.809 146.932 C 249.211 145.795,250.717 144.558,251.155 144.182 C 252.964 142.632,257.234 139.081,259.920 136.894 C 275.952 123.841,279.573 120.908,282.581 118.541 C 285.744 116.052,288.647 114.104,289.194 114.104 C 289.312 114.104,290.278 114.904,291.342 115.881 L 293.276 117.659 295.722 117.463 C 301.259 117.017,305.651 116.219,305.840 115.625 C 306.301 114.173,305.715 113.689,303.791 113.933 C 298.466 114.609,297.349 114.714,295.392 114.727 L 293.254 114.741 291.474 112.510 C 289.792 110.402,289.041 109.893,288.618 110.577 M156.349 112.805 C 156.249 112.967,157.352 113.692,158.801 114.416 C 162.933 116.480,166.880 115.665,165.842 112.961 C 165.640 112.434,156.670 112.286,156.349 112.805 M141.009 118.645 C 140.882 119.040,140.693 120.151,140.589 121.116 L 140.398 122.869 133.705 123.051 C 126.000 123.260,126.853 123.112,126.853 124.239 C 126.853 125.813,127.174 125.896,133.270 125.896 C 140.118 125.896,140.358 125.827,140.871 123.687 C 141.084 122.799,141.424 122.055,141.625 122.035 C 144.996 121.698,158.847 130.462,163.774 136.050 C 165.452 137.952,166.176 138.968,168.579 142.789 L 169.281 143.904 169.062 142.789 C 167.963 137.192,160.584 129.129,151.076 123.137 C 148.329 121.406,147.059 120.661,143.337 118.597 C 141.799 117.744,141.294 117.754,141.009 118.645 M320.000 129.391 C 320.000 131.260,320.564 131.447,325.381 131.180 C 329.237 130.966,330.977 130.604,329.880 130.245 C 322.466 127.816,320.000 127.603,320.000 129.391 M357.707 135.518 C 355.988 137.168,352.717 140.347,350.438 142.582 C 345.723 147.207,346.304 147.006,341.514 145.679 C 340.112 145.291,338.175 144.781,337.211 144.545 C 332.428 143.377,332.395 143.335,334.540 141.157 C 336.940 138.720,335.402 138.473,326.853 139.924 C 324.924 140.251,321.841 140.753,320.000 141.039 C 308.740 142.786,301.272 144.191,297.892 145.196 C 297.039 145.450,296.119 145.657,295.848 145.657 C 295.577 145.657,294.625 145.863,293.733 146.115 C 292.841 146.366,291.251 146.797,290.199 147.073 C 274.078 151.299,255.800 158.797,241.504 167.049 C 236.355 170.021,234.926 171.639,238.639 170.293 C 239.826 169.863,241.227 169.391,241.753 169.245 C 244.424 168.501,248.299 166.893,249.718 165.941 C 252.774 163.889,261.865 159.592,269.323 156.674 C 270.988 156.022,272.686 155.354,273.097 155.188 C 274.367 154.677,282.844 151.921,285.259 151.235 C 286.048 151.011,287.554 150.585,288.606 150.288 C 296.607 148.031,310.709 145.085,318.561 144.032 C 319.960 143.844,321.198 143.633,321.311 143.563 C 321.424 143.493,323.847 143.288,326.696 143.107 C 332.538 142.737,332.749 142.793,332.749 144.729 C 332.749 146.288,332.789 146.308,338.965 147.889 C 346.249 149.752,344.796 150.348,353.381 141.979 C 360.405 135.132,361.776 133.462,361.004 132.691 C 360.909 132.596,359.426 133.868,357.707 135.518 M220.314 141.805 C 219.215 144.011,217.313 147.179,216.087 148.845 C 212.977 153.068,212.745 153.851,215.080 152.233 C 217.634 150.462,219.364 147.366,221.725 140.334 C 222.860 136.955,222.585 137.242,220.314 141.805 M59.179 139.275 C 58.086 140.575,57.796 142.026,58.480 142.782 C 58.772 143.105,59.118 144.135,59.249 145.071 C 59.380 146.007,59.762 147.275,60.099 147.888 C 60.594 148.790,60.712 149.647,60.711 152.351 C 60.710 155.830,60.610 156.163,58.638 159.268 C 57.946 160.357,58.458 160.456,60.027 159.536 C 62.528 158.070,62.870 156.982,62.002 153.241 C 61.681 151.856,61.536 149.407,61.538 145.418 C 61.543 138.225,61.079 137.017,59.179 139.275 M188.160 154.945 C 187.551 155.715,187.346 157.131,187.843 157.131 C 188.634 157.131,189.089 156.271,188.783 155.354 C 188.559 154.681,188.434 154.599,188.160 154.945 M339.954 159.500 C 339.478 161.397,340.599 162.231,343.625 162.231 C 345.381 162.231,345.200 161.640,342.964 160.063 C 340.781 158.524,340.225 158.420,339.954 159.500 M293.546 170.061 C 271.949 171.310,257.196 174.837,243.028 182.137 C 236.744 185.375,233.257 187.943,223.133 196.786 C 219.701 199.784,215.458 203.448,213.705 204.928 C 211.952 206.407,210.446 207.697,210.359 207.794 C 210.271 207.891,208.693 209.258,206.853 210.831 C 205.012 212.405,201.700 215.273,199.492 217.205 C 197.284 219.137,193.214 222.653,190.447 225.020 C 187.681 227.386,183.531 230.972,181.226 232.988 C 178.920 235.004,175.188 238.231,172.933 240.159 C 170.677 242.088,166.522 245.657,163.699 248.092 C 160.876 250.527,155.984 254.734,152.829 257.442 C 149.673 260.149,145.801 263.484,144.223 264.851 C 142.645 266.219,140.463 268.107,139.374 269.048 C 138.285 269.988,134.426 273.339,130.799 276.494 C 127.171 279.649,123.688 282.657,123.058 283.177 C 122.428 283.697,118.757 286.863,114.900 290.213 C 111.044 293.563,106.669 297.277,105.179 298.468 C 102.665 300.476,100.311 302.526,95.458 306.932 C 90.055 311.838,88.097 313.537,87.004 314.264 C 86.345 314.703,84.965 315.850,83.938 316.814 L 82.072 318.566 84.303 318.657 L 86.534 318.749 88.287 317.097 C 89.251 316.188,91.904 313.827,94.183 311.851 C 96.462 309.875,100.273 306.561,102.652 304.487 C 105.031 302.414,110.104 297.992,113.925 294.661 C 117.746 291.331,122.622 287.100,124.762 285.259 C 128.133 282.358,131.433 279.483,134.980 276.358 C 138.072 273.634,155.764 258.234,158.259 256.096 C 161.330 253.463,174.408 242.083,181.176 236.154 C 183.290 234.302,186.724 231.318,188.808 229.522 C 193.345 225.612,195.788 223.481,199.650 220.065 C 201.245 218.655,207.498 213.224,213.546 207.995 C 219.594 202.767,225.670 197.472,227.049 196.229 C 240.540 184.071,258.846 176.495,280.319 174.183 C 281.371 174.070,283.880 173.743,285.896 173.456 C 294.412 172.245,330.088 172.918,332.745 174.341 C 333.828 174.920,342.118 172.429,341.423 171.733 C 340.171 170.482,306.563 169.308,293.546 170.061 M375.427 172.568 C 375.275 172.720,372.125 173.615,367.490 174.824 C 365.825 175.258,363.745 175.821,362.869 176.075 C 361.992 176.329,360.414 176.761,359.363 177.036 C 358.311 177.310,356.159 177.909,354.582 178.366 C 353.004 178.823,350.996 179.387,350.120 179.620 C 349.243 179.852,347.378 180.357,345.976 180.741 C 341.411 181.991,341.877 182.097,337.623 178.837 C 333.261 175.494,332.992 175.401,333.129 177.291 C 333.225 178.612,333.319 178.715,336.892 181.439 C 341.360 184.843,341.135 184.781,345.210 183.737 C 350.624 182.351,351.591 182.097,354.263 181.353 C 355.665 180.963,357.100 180.571,357.450 180.482 C 357.801 180.393,359.737 179.853,361.753 179.282 C 363.769 178.711,367.355 177.717,369.721 177.073 C 375.646 175.461,376.317 175.148,376.502 173.910 C 376.659 172.857,375.983 172.012,375.427 172.568 M121.912 259.286 C 118.620 262.583,108.932 269.160,102.506 272.461 L 100.239 273.625 95.618 273.625 C 86.901 273.625,86.067 272.408,87.367 261.594 C 88.000 256.327,87.771 256.324,82.183 261.518 C 76.173 267.105,71.501 267.865,67.344 263.933 C 65.740 262.415,65.692 263.290,67.208 266.454 C 68.173 268.468,69.513 269.173,72.890 269.440 C 73.916 269.521,75.183 269.798,75.705 270.054 C 77.293 270.834,78.830 271.480,79.934 271.833 C 80.512 272.017,81.395 272.460,81.896 272.817 C 83.084 273.663,83.554 273.636,84.462 272.669 C 85.569 271.491,86.208 271.675,87.613 273.576 C 89.489 276.115,90.938 276.418,97.052 275.546 C 97.578 275.471,98.786 275.318,99.737 275.206 C 101.681 274.977,107.726 273.261,108.191 272.806 C 108.358 272.643,108.716 272.509,108.988 272.508 C 109.260 272.507,110.558 271.814,111.873 270.967 C 113.187 270.121,114.908 269.060,115.697 268.611 C 117.925 267.341,119.966 265.380,121.682 262.862 C 125.501 257.258,125.609 255.585,121.912 259.286 " stroke="none" fill="#6e4216" fill-rule="evenodd"></path></g></svg>