<svg id="svg" version="1.1" xmlns="http://www.w3.org/2000/svg" xmlns:xlink="http://www.w3.org/1999/xlink" width="400" height="318.5031185031185" viewBox="0, 0, 400,318.5031185031185"><g id="svgg"><path id="path0" d="M197.010 32.540 C 189.331 34.883,187.947 45.829,194.826 49.810 C 203.139 54.621,212.530 45.882,208.219 37.348 C 206.230 33.409,201.213 31.257,197.010 32.540 M198.008 54.394 C 197.489 54.604,197.476 57.747,197.992 58.263 C 198.646 58.917,201.357 58.748,201.742 58.029 C 203.117 55.459,200.847 53.249,198.008 54.394 M198.008 61.725 C 197.381 61.978,197.474 65.537,198.114 65.783 C 199.289 66.234,201.406 65.987,201.742 65.360 C 203.117 62.789,200.847 60.579,198.008 61.725 M115.145 65.624 C 110.977 67.173,108.906 70.146,108.906 74.582 C 108.906 84.847,122.666 87.837,126.908 78.493 C 130.333 70.948,122.849 62.760,115.145 65.624 M277.926 66.893 C 267.613 70.272,269.858 85.565,280.659 85.505 C 292.883 85.437,293.338 67.203,281.128 66.725 C 279.806 66.673,278.366 66.749,277.926 66.893 M198.167 69.189 C 197.404 69.633,197.360 72.824,198.114 73.113 C 199.289 73.564,201.406 73.317,201.742 72.690 C 203.125 70.106,200.689 67.720,198.167 69.189 M197.991 76.441 C 197.706 76.627,197.605 77.308,197.672 78.595 L 197.769 80.478 199.674 80.478 C 201.911 80.478,202.443 79.773,201.891 77.539 C 201.583 76.293,199.230 75.630,197.991 76.441 M127.172 83.384 C 125.577 84.825,125.583 84.978,127.295 86.658 L 128.694 88.031 130.004 86.847 C 131.622 85.385,131.636 84.906,130.106 83.411 C 128.631 81.971,128.734 81.972,127.172 83.384 M197.741 83.942 C 197.649 84.182,197.617 85.151,197.671 86.094 L 197.769 87.809 199.744 87.903 L 201.719 87.998 201.931 86.867 C 202.047 86.246,202.048 85.235,201.933 84.622 L 201.724 83.506 199.816 83.506 C 198.495 83.506,197.857 83.640,197.741 83.942 M268.591 85.033 C 267.151 86.508,267.152 86.405,268.563 87.967 C 269.928 89.478,270.266 89.525,271.468 88.367 C 273.370 86.533,273.379 86.479,272.018 85.085 C 270.491 83.522,270.073 83.516,268.591 85.033 M132.266 88.770 L 130.854 90.208 132.359 91.714 L 133.865 93.219 135.370 91.714 L 136.875 90.208 135.463 88.770 C 134.686 87.978,133.967 87.331,133.865 87.331 C 133.762 87.331,133.043 87.978,132.266 88.770 M263.491 90.133 C 262.011 91.649,262.014 91.687,263.731 93.373 L 265.152 94.767 266.440 93.439 C 268.026 91.805,268.031 91.580,266.520 90.105 C 265.026 88.645,264.943 88.646,263.491 90.133 M137.404 93.876 C 136.142 95.312,136.159 95.558,137.623 96.987 C 139.118 98.447,139.200 98.446,140.652 96.959 C 142.112 95.464,142.111 95.382,140.624 93.929 C 139.123 92.464,138.650 92.456,137.404 93.876 M258.487 95.177 C 257.785 95.810,257.211 96.506,257.211 96.721 C 257.211 97.345,259.413 99.442,260.068 99.442 C 260.647 99.442,262.629 97.277,262.629 96.645 C 262.629 96.338,260.237 94.024,259.920 94.024 C 259.834 94.024,259.189 94.543,258.487 95.177 M142.694 99.057 C 141.234 100.552,141.235 100.634,142.723 102.087 C 144.217 103.546,144.300 103.546,145.752 102.058 C 147.212 100.563,147.211 100.481,145.724 99.029 C 144.229 97.569,144.147 97.570,142.694 99.057 M253.130 100.493 C 251.820 101.845,251.847 102.242,253.351 103.710 C 254.709 105.037,255.147 105.010,256.434 103.522 C 257.659 102.106,257.657 101.990,256.386 100.688 C 254.904 99.170,254.440 99.142,253.130 100.493 M147.889 104.101 C 146.290 105.545,146.297 105.693,148.047 107.410 L 149.480 108.816 150.756 107.571 C 152.335 106.029,152.343 105.613,150.823 104.128 C 149.349 102.688,149.452 102.689,147.889 104.101 M247.873 105.750 C 246.434 107.225,246.434 107.122,247.846 108.684 C 249.203 110.186,249.509 110.232,250.819 109.129 C 252.589 107.640,252.652 107.186,251.280 105.781 C 249.775 104.240,249.352 104.236,247.873 105.750 M141.844 129.063 C 141.335 130.013,141.398 150.798,141.912 151.491 C 142.269 151.973,143.384 152.037,152.669 152.110 L 163.028 152.191 163.028 157.769 L 163.028 163.347 152.669 163.428 C 143.384 163.501,142.269 163.565,141.912 164.047 C 141.422 164.708,141.342 185.688,141.826 186.454 C 142.123 186.923,256.834 187.044,257.590 186.576 C 257.887 186.393,257.949 164.775,257.655 164.010 C 257.484 163.565,256.263 163.506,247.201 163.506 C 239.645 163.506,236.839 163.405,236.558 163.124 C 235.986 162.551,236.025 152.872,236.601 152.394 C 236.888 152.156,240.383 152.013,247.358 151.957 L 257.689 151.873 257.778 140.876 C 257.827 134.829,257.789 129.558,257.692 129.163 L 257.518 128.446 199.846 128.446 C 143.153 128.446,142.168 128.457,141.844 129.063 M224.769 137.975 C 225.624 138.740,225.802 139.130,225.802 140.239 C 225.802 143.425,221.502 144.583,220.056 141.786 C 218.362 138.512,222.040 135.538,224.769 137.975 M236.200 137.983 C 238.253 140.037,236.972 143.267,234.104 143.267 C 232.867 143.267,232.484 143.115,231.845 142.373 C 230.089 140.331,231.481 137.052,234.104 137.052 C 234.966 137.052,235.510 137.294,236.200 137.983 M247.625 138.032 C 249.790 140.198,247.962 143.855,244.993 143.298 C 242.412 142.814,241.521 139.689,243.468 137.949 C 244.862 136.703,246.325 136.732,247.625 138.032 M198.147 139.020 C 199.085 139.902,199.076 140.395,198.102 141.369 L 197.320 142.151 173.791 142.151 C 147.867 142.151,148.845 142.226,148.845 140.239 C 148.845 138.252,147.862 138.327,173.835 138.327 L 197.409 138.327 198.147 139.020 M80.884 146.504 C 76.364 147.888,73.293 153.704,74.748 158.126 C 78.242 168.746,93.227 166.648,93.227 155.538 C 93.227 148.879,87.298 144.540,80.884 146.504 M310.402 148.628 C 300.559 152.306,302.981 167.012,313.429 167.012 C 323.420 167.012,326.762 154.340,318.117 149.236 C 316.415 148.231,312.326 147.909,310.402 148.628 M230.375 152.414 C 230.910 152.950,230.910 162.588,230.375 163.124 C 229.969 163.529,170.473 163.713,169.428 163.313 C 168.904 163.111,168.631 152.750,169.137 152.244 C 169.552 151.829,229.957 151.997,230.375 152.414 M96.800 153.505 C 96.676 153.630,96.574 154.647,96.574 155.766 L 96.574 157.799 98.566 157.704 L 100.558 157.610 100.558 155.538 L 100.558 153.466 98.792 153.373 C 97.821 153.321,96.925 153.381,96.800 153.505 M104.131 153.505 C 104.006 153.630,103.904 154.647,103.904 155.766 L 103.904 157.799 105.896 157.704 L 107.888 157.610 107.888 155.538 L 107.888 153.466 106.123 153.373 C 105.152 153.321,104.255 153.381,104.131 153.505 M111.461 153.505 C 111.337 153.630,111.235 154.640,111.235 155.750 L 111.235 157.769 113.321 157.769 L 115.408 157.769 115.313 155.618 L 115.219 153.466 113.453 153.373 C 112.482 153.321,111.586 153.381,111.461 153.505 M118.749 153.689 C 117.766 156.872,118.193 157.769,120.687 157.769 L 122.738 157.769 122.644 155.618 L 122.550 153.466 120.713 153.370 C 119.417 153.303,118.839 153.397,118.749 153.689 M126.123 153.505 C 125.998 153.630,125.896 154.640,125.896 155.750 L 125.896 157.769 127.983 157.769 L 130.069 157.769 129.975 155.618 L 129.880 153.466 128.115 153.373 C 127.144 153.321,126.247 153.381,126.123 153.505 M267.541 155.977 C 267.448 156.218,267.417 157.115,267.471 157.969 L 267.570 159.522 269.519 159.616 L 271.468 159.709 271.675 158.415 C 272.066 155.966,271.757 155.538,269.597 155.538 C 268.288 155.538,267.657 155.672,267.541 155.977 M274.877 155.961 C 274.781 156.211,274.747 157.115,274.802 157.969 L 274.900 159.522 276.972 159.522 L 279.044 159.522 279.044 157.610 L 279.044 155.697 277.048 155.602 C 275.548 155.531,275.008 155.620,274.877 155.961 M282.208 155.961 C 282.112 156.211,282.078 157.115,282.132 157.969 L 282.231 159.522 284.013 159.616 C 286.291 159.736,286.654 159.359,286.301 157.243 L 286.044 155.697 284.213 155.602 C 282.855 155.531,282.338 155.623,282.208 155.961 M289.533 155.977 C 289.440 156.218,289.409 157.115,289.463 157.969 L 289.562 159.522 291.474 159.522 L 293.386 159.522 293.481 157.530 L 293.576 155.538 291.639 155.538 C 290.287 155.538,289.650 155.671,289.533 155.977 M296.863 155.977 C 296.771 156.218,296.739 157.115,296.794 157.969 L 296.892 159.522 298.884 159.617 L 300.876 159.712 300.876 157.625 L 300.876 155.538 298.954 155.538 C 297.616 155.538,296.981 155.671,296.863 155.977 M224.769 173.035 C 227.457 175.437,224.677 179.563,221.414 178.015 C 219.388 177.054,218.989 174.686,220.582 173.092 C 221.893 171.782,223.344 171.762,224.769 173.035 M236.200 173.043 C 238.732 175.575,235.877 179.667,232.717 178.033 C 229.873 176.562,230.915 172.112,234.104 172.112 C 234.966 172.112,235.510 172.353,236.200 173.043 M247.681 173.101 C 249.308 174.843,248.722 177.445,246.540 178.165 C 243.972 179.013,241.838 176.909,242.571 174.253 C 243.177 172.057,246.092 171.400,247.681 173.101 M198.235 174.084 C 199.109 175.023,199.053 175.758,198.045 176.551 C 197.212 177.205,196.996 177.211,173.733 177.211 C 147.873 177.211,148.845 177.286,148.845 175.299 C 148.845 173.311,147.853 173.386,173.923 173.386 L 197.585 173.386 198.235 174.084 M146.412 204.420 L 144.911 205.921 146.307 207.343 C 148.012 209.080,148.161 209.087,149.604 207.489 C 151.039 205.902,151.047 205.995,149.335 204.315 L 147.913 202.919 146.412 204.420 M246.599 205.830 C 245.102 207.363,245.118 207.782,246.729 209.237 L 248.039 210.421 249.438 209.049 C 251.138 207.380,251.144 207.282,249.628 205.802 C 248.133 204.342,248.051 204.343,246.599 205.830 M141.101 209.655 C 140.451 210.320,139.920 210.965,139.920 211.088 C 139.920 211.594,142.267 213.865,142.789 213.865 C 143.271 213.865,145.657 211.611,145.657 211.155 C 145.657 210.715,143.279 208.446,142.816 208.446 C 142.522 208.446,141.750 208.990,141.101 209.655 M251.846 210.947 C 250.285 212.388,250.257 212.550,251.349 213.847 C 252.793 215.563,253.204 215.621,254.653 214.312 C 256.259 212.862,256.260 212.319,254.660 210.874 C 253.120 209.482,253.441 209.474,251.846 210.947 M136.001 214.754 C 134.523 216.268,134.525 216.311,136.219 217.973 L 137.618 219.346 138.928 218.162 C 140.547 216.700,140.561 216.220,139.030 214.726 C 137.536 213.266,137.453 213.267,136.001 214.754 M256.798 216.348 C 255.325 217.856,255.330 217.992,256.893 219.405 C 258.464 220.824,258.415 220.825,259.856 219.349 C 261.304 217.866,261.321 217.453,259.985 216.158 C 258.638 214.852,258.235 214.876,256.798 216.348 M131.032 219.767 C 129.414 221.228,129.399 221.708,130.930 223.202 C 132.425 224.662,132.507 224.661,133.959 223.174 C 135.438 221.660,135.435 221.618,133.741 219.955 L 132.342 218.583 131.032 219.767 M262.027 221.638 L 260.654 223.036 261.838 224.347 C 263.300 225.965,263.780 225.979,265.274 224.449 C 266.734 222.954,266.733 222.872,265.246 221.419 C 263.732 219.941,263.689 219.944,262.027 221.638 M125.424 225.374 L 124.240 226.685 125.613 228.083 C 127.281 229.783,127.380 229.789,128.860 228.273 C 130.319 226.779,130.319 226.696,128.831 225.244 C 127.299 223.748,126.879 223.764,125.424 225.374 M195.697 227.410 L 195.697 229.512 197.689 229.418 L 199.681 229.323 199.681 227.410 L 199.681 225.498 197.689 225.403 L 195.697 225.308 195.697 227.410 M267.316 226.547 C 265.832 228.067,265.840 228.427,267.396 229.946 C 268.777 231.295,268.702 231.304,270.677 229.518 C 271.862 228.447,271.783 227.851,270.278 226.491 C 268.708 225.073,268.757 225.072,267.316 226.547 M114.263 228.000 C 107.445 229.969,105.082 238.240,109.834 243.501 C 113.650 247.725,119.980 247.720,123.801 243.491 C 130.141 236.473,123.315 225.387,114.263 228.000 M275.149 229.992 C 266.044 234.397,269.104 247.962,279.203 247.962 C 287.707 247.962,291.837 238.135,285.949 231.913 C 283.330 229.146,278.626 228.309,275.149 229.992 M195.697 234.726 L 195.697 236.813 197.784 236.813 L 199.871 236.813 199.776 234.821 L 199.681 232.829 197.689 232.734 L 195.697 232.639 195.697 234.726 M195.762 242.151 L 195.857 244.303 197.101 244.405 C 199.588 244.608,199.841 244.393,199.841 242.066 L 199.841 240.000 197.754 240.000 L 195.668 240.000 195.762 242.151 M195.762 249.466 L 195.857 251.633 197.101 251.735 C 199.614 251.941,199.883 251.713,199.776 249.472 L 199.681 247.490 197.674 247.395 L 195.667 247.299 195.762 249.466 M195.697 256.733 L 195.697 258.835 197.689 258.740 L 199.681 258.645 199.681 256.733 L 199.681 254.821 197.689 254.726 L 195.697 254.631 195.697 256.733 M195.219 262.268 C 186.155 264.645,185.914 277.585,194.877 280.589 C 204.417 283.787,211.520 271.228,204.009 264.443 C 201.843 262.486,198.007 261.537,195.219 262.268 " stroke="none" fill="#1975d2" fill-rule="evenodd"></path></g></svg>