<svg id="svg" version="1.1" xmlns="http://www.w3.org/2000/svg" xmlns:xlink="http://www.w3.org/1999/xlink" width="400" height="400" viewBox="0, 0, 400,400"><g id="svgg"><path id="path0" d="M76.362 60.919 C 61.033 65.901,64.620 88.594,80.719 88.486 C 95.814 88.384,100.336 68.288,86.759 61.645 C 84.118 60.353,79.167 60.007,76.362 60.919 M302.612 60.896 C 287.078 65.968,290.410 88.511,306.693 88.511 C 324.961 88.511,325.616 61.242,307.367 60.475 C 305.493 60.396,303.639 60.560,302.612 60.896 M84.923 64.878 C 95.351 69.734,92.174 84.871,80.719 84.906 C 69.519 84.940,66.007 70.154,76.026 65.147 C 79.119 63.602,81.995 63.515,84.923 64.878 M311.982 65.390 C 321.701 71.399,316.939 86.016,305.594 84.997 C 296.159 84.150,292.739 71.873,300.327 66.086 C 303.632 63.565,308.555 63.271,311.982 65.390 M166.725 69.328 C 152.265 73.379,153.221 94.283,167.983 96.812 C 178.134 98.551,186.605 89.502,184.074 79.623 C 182.116 71.981,174.143 67.250,166.725 69.328 M212.717 86.889 C 206.875 88.716,202.997 94.146,202.997 100.500 C 202.997 115.665,223.442 120.141,229.880 106.385 C 235.054 95.328,224.407 83.234,212.717 86.889 M222.395 91.317 C 227.882 94.710,229.334 101.513,225.662 106.625 C 219.651 114.993,206.472 110.762,206.449 100.457 C 206.431 92.302,215.542 87.080,222.395 91.317 M187.413 124.521 C 184.227 124.909,184.398 124.703,183.207 129.566 C 181.813 135.258,181.825 135.237,179.641 135.737 L 177.813 136.155 174.200 132.376 L 170.586 128.596 168.418 129.476 C 163.111 131.630,154.099 137.531,154.423 138.640 C 154.523 138.981,155.184 141.295,155.891 143.782 L 157.179 148.303 155.812 149.660 L 154.446 151.017 149.665 149.635 C 147.035 148.874,144.664 148.252,144.395 148.252 C 143.261 148.252,135.065 162.169,135.065 164.095 C 135.065 164.465,136.707 166.311,138.713 168.198 L 142.362 171.628 141.803 173.606 L 141.243 175.584 136.269 176.822 L 131.294 178.060 130.980 179.440 C 130.531 181.417,130.411 191.132,130.797 194.266 L 131.124 196.924 136.261 198.201 L 141.397 199.478 141.848 201.358 L 142.299 203.238 138.485 207.013 L 134.670 210.789 136.611 214.785 C 138.132 217.917,141.621 223.624,143.893 226.696 C 144.024 226.874,146.430 226.360,149.239 225.554 L 154.346 224.090 155.762 225.506 L 157.179 226.922 155.891 231.443 C 155.184 233.930,154.522 236.244,154.423 236.586 C 154.184 237.403,161.498 242.271,166.649 244.725 L 170.430 246.526 174.251 242.725 L 178.073 238.924 179.916 239.417 C 182.918 240.220,183.017 241.000,183.017 263.886 C 183.017 287.091,182.720 286.017,187.967 281.818 C 189.546 280.554,193.831 277.364,197.489 274.729 L 204.139 269.937 204.304 256.947 C 204.507 241.000,204.648 240.254,207.617 239.415 L 209.590 238.857 213.021 242.505 C 214.908 244.512,216.762 246.154,217.141 246.154 C 219.186 246.154,232.967 238.032,232.967 236.826 C 232.967 236.556,232.363 234.240,231.625 231.680 L 230.284 227.024 231.767 225.576 L 233.249 224.128 238.157 225.541 C 240.856 226.318,243.213 226.862,243.394 226.750 C 244.622 225.991,250.486 216.017,252.118 211.911 L 252.625 210.635 248.833 207.010 L 245.041 203.384 245.520 201.492 L 245.999 199.600 250.934 198.325 C 253.648 197.623,256.007 196.825,256.176 196.551 C 257.101 195.055,257.098 179.571,256.173 178.457 C 255.957 178.197,253.616 177.464,250.969 176.828 L 246.157 175.672 245.615 173.850 L 245.072 172.028 248.854 168.180 L 252.636 164.333 251.508 161.787 C 249.046 156.227,243.928 148.238,242.844 148.263 C 242.577 148.268,240.290 148.879,237.762 149.619 L 233.167 150.964 231.700 149.558 C 230.893 148.784,230.300 147.949,230.383 147.702 C 230.942 146.017,232.967 138.662,232.967 138.315 C 232.967 137.790,229.663 135.341,226.174 133.279 C 224.745 132.435,223.107 131.426,222.533 131.036 C 221.959 130.647,220.431 129.872,219.136 129.315 L 216.783 128.301 215.419 129.785 C 214.669 130.601,213.008 132.374,211.728 133.726 L 209.402 136.183 207.805 135.711 C 205.633 135.070,205.640 135.082,204.368 129.797 C 203.448 125.971,203.097 125.083,202.422 124.877 C 201.417 124.570,189.358 124.284,187.413 124.521 M200.233 126.519 L 201.665 126.756 202.812 131.528 C 204.112 136.938,203.925 136.688,207.364 137.614 L 209.932 138.305 213.622 134.629 L 217.313 130.954 219.046 131.644 C 223.505 133.417,231.094 138.411,230.811 139.386 C 230.703 139.757,230.052 142.022,229.363 144.421 L 228.111 148.781 230.283 150.953 L 232.455 153.125 237.007 151.836 C 239.510 151.127,241.769 150.467,242.025 150.368 C 242.562 150.163,245.680 154.650,248.051 159.041 C 250.673 163.895,250.756 163.413,246.575 167.611 L 242.914 171.287 243.605 173.855 C 244.531 177.295,244.279 177.107,249.712 178.412 L 254.506 179.564 254.765 181.638 C 255.080 184.156,254.852 194.833,254.476 195.208 C 254.328 195.356,252.081 196.014,249.483 196.670 C 243.894 198.083,244.710 197.465,243.711 201.042 L 242.886 203.996 246.518 207.452 C 248.515 209.353,250.150 211.110,250.150 211.357 C 250.150 213.093,243.205 224.572,242.158 224.565 C 241.828 224.563,239.760 224.028,237.562 223.377 C 232.425 221.853,232.695 221.819,230.231 224.314 L 228.122 226.449 229.543 231.385 C 230.324 234.099,230.830 236.421,230.667 236.544 C 228.405 238.248,222.763 241.689,220.353 242.834 L 217.268 244.299 213.712 240.455 L 210.156 236.611 208.675 237.125 C 207.860 237.407,206.608 237.752,205.894 237.890 L 204.595 238.142 204.595 234.039 L 204.595 229.936 206.488 229.430 C 230.284 223.065,243.719 194.950,234.337 171.154 C 233.301 168.528,229.380 161.440,228.971 161.456 C 227.459 161.515,227.408 162.609,228.822 164.685 C 238.588 179.025,237.567 199.793,226.415 213.637 C 221.046 220.302,211.545 226.684,205.541 227.658 L 204.196 227.877 204.196 220.653 L 204.196 213.430 207.093 211.920 C 224.257 202.971,226.201 177.385,210.598 165.786 C 203.676 160.641,203.796 160.472,203.796 175.320 C 203.796 186.139,203.720 187.634,203.135 188.280 C 202.200 189.313,185.466 189.405,184.444 188.383 C 184.099 188.038,183.778 187.723,183.731 187.684 C 183.684 187.644,183.549 182.038,183.431 175.225 C 183.179 160.662,183.477 161.306,178.527 164.616 C 161.085 176.282,162.486 203.567,180.974 212.243 L 182.984 213.187 183.001 220.656 L 183.017 228.124 180.320 227.206 C 154.448 218.399,143.728 187.370,158.703 164.639 C 171.587 145.082,198.036 139.753,217.178 152.858 C 219.706 154.589,219.772 154.609,220.212 153.786 C 222.009 150.428,204.479 143.856,193.725 143.856 C 144.924 143.856,133.158 212.774,179.221 228.816 L 182.817 230.068 182.931 234.115 C 182.994 236.341,182.941 238.162,182.813 238.162 C 182.686 238.162,181.405 237.866,179.967 237.505 L 177.353 236.848 173.650 240.536 L 169.947 244.224 166.592 242.543 C 162.206 240.347,156.643 236.721,156.643 236.059 C 156.643 235.771,157.246 233.445,157.982 230.891 L 159.321 226.245 157.147 224.072 L 154.974 221.898 150.328 223.237 C 147.773 223.973,145.448 224.575,145.160 224.575 C 144.497 224.575,140.871 219.012,138.675 214.627 L 136.995 211.272 140.697 207.554 L 144.400 203.837 143.663 200.880 L 142.927 197.924 138.196 196.787 C 135.594 196.162,133.281 195.537,133.056 195.398 C 132.511 195.061,132.140 185.488,132.545 182.239 L 132.867 179.664 137.854 178.423 L 142.840 177.183 143.697 174.098 L 144.554 171.013 140.781 167.522 L 137.008 164.032 137.862 162.036 C 138.793 159.864,143.054 152.588,144.229 151.164 L 144.959 150.280 149.929 151.700 L 154.900 153.119 157.107 150.964 L 159.314 148.810 157.957 144.079 C 157.211 141.478,156.695 139.104,156.810 138.804 C 157.235 137.697,168.417 131.069,169.861 131.069 C 170.109 131.069,171.866 132.703,173.767 134.701 L 177.223 138.333 180.220 137.553 L 183.217 136.772 184.250 132.822 C 184.818 130.649,185.403 128.389,185.550 127.799 C 185.742 127.025,186.122 126.680,186.914 126.560 C 188.685 126.291,198.672 126.261,200.233 126.519 M102.427 150.802 C 87.352 155.726,90.846 178.022,106.693 178.022 C 121.379 178.022,125.982 158.154,112.803 151.651 C 110.042 150.289,105.209 149.893,102.427 150.802 M294.220 150.803 C 278.785 155.866,282.107 178.022,298.302 178.022 C 316.160 178.022,316.773 151.331,298.937 150.408 C 297.023 150.309,295.283 150.455,294.220 150.803 M109.759 154.044 C 114.154 155.349,117.256 159.576,117.236 164.232 C 117.195 174.065,105.211 178.529,98.704 171.137 C 91.604 163.071,99.427 150.976,109.759 154.044 M222.982 156.438 C 221.986 157.637,224.724 160.207,225.998 159.269 C 226.748 158.716,226.729 158.651,225.396 157.271 C 223.845 155.664,223.673 155.605,222.982 156.438 M181.818 176.617 L 181.818 188.199 182.983 189.504 L 184.149 190.809 193.152 190.930 C 206.518 191.110,205.794 191.962,205.794 176.037 C 205.794 169.986,205.899 165.035,206.026 165.035 C 207.575 165.035,213.248 170.346,215.561 173.962 C 223.579 186.497,218.837 203.820,205.495 210.731 L 202.597 212.231 202.597 240.517 L 202.597 268.802 193.906 275.073 L 185.215 281.344 185.015 246.799 C 184.905 227.799,184.725 212.176,184.615 212.080 C 184.505 211.983,183.067 211.207,181.419 210.354 C 167.425 203.115,163.522 183.852,173.566 171.604 C 175.908 168.748,180.378 165.035,181.474 165.035 C 181.663 165.035,181.818 170.247,181.818 176.617 M84.279 197.740 C 69.629 203.621,73.422 224.787,89.111 224.700 C 107.289 224.599,107.876 197.609,89.710 197.103 C 86.967 197.027,85.679 197.178,84.279 197.740 M276.723 197.403 C 264.754 201.133,263.417 217.880,274.651 223.359 C 288.640 230.180,301.424 212.653,290.837 201.167 C 287.727 197.793,281.124 196.032,276.723 197.403 M285.213 201.146 C 295.391 206.409,292.185 221.332,280.868 221.370 C 269.014 221.409,265.999 204.923,277.108 200.811 C 279.143 200.058,283.453 200.236,285.213 201.146 M76.838 287.067 C 61.377 292.137,64.536 314.287,80.719 314.285 C 98.677 314.284,99.406 287.735,81.476 286.688 C 79.592 286.578,77.912 286.715,76.838 287.067 M302.418 287.259 C 288.380 291.908,289.744 311.829,304.284 314.517 C 320.375 317.492,327.447 295.116,312.697 287.899 C 309.788 286.476,305.574 286.213,302.418 287.259 M84.915 290.856 C 97.250 296.479,89.113 315.757,76.668 310.395 C 66.071 305.829,69.210 290.127,80.719 290.127 C 82.382 290.127,83.892 290.390,84.915 290.856 M311.085 290.907 C 321.328 295.866,318.013 311.046,306.682 311.063 C 296.898 311.077,292.482 299.121,299.869 292.618 C 302.827 290.015,307.705 289.271,311.085 290.907 " stroke="none" fill="#2c3e47" fill-rule="evenodd"></path><path id="path1" d="M126.873 77.758 C 126.214 77.851,124.236 78.122,122.478 78.361 C 114.772 79.405,106.018 82.284,99.194 86.019 L 95.491 88.046 96.355 88.966 C 97.078 89.735,97.135 89.989,96.705 90.508 C 96.083 91.256,94.521 90.168,94.878 89.236 C 95.199 88.401,94.765 88.598,92.159 90.469 C 70.195 106.238,57.004 138.098,62.856 161.239 C 64.417 167.411,66.828 173.204,72.919 185.415 C 75.824 191.239,78.522 196.858,78.915 197.902 C 79.716 200.032,79.962 200.139,81.420 198.993 C 86.183 195.246,94.974 196.334,99.485 201.229 C 109.828 212.449,97.274 230.018,83.439 223.684 L 81.276 222.693 80.362 225.333 C 78.831 229.752,75.201 236.955,67.796 250.264 C 46.716 288.152,42.122 304.164,47.593 320.679 C 55.398 344.240,77.873 346.198,114.685 326.525 C 126.056 320.449,132.673 316.329,161.439 297.415 C 168.142 293.008,175.784 288.167,178.422 286.658 L 183.217 283.914 182.996 263.935 C 182.736 240.505,182.707 240.280,179.798 239.529 L 178.022 239.071 174.158 242.873 L 170.295 246.674 166.166 244.644 C 162.455 242.818,157.705 239.896,155.075 237.819 L 154.106 237.054 155.573 231.919 L 157.040 226.783 155.738 225.481 L 154.435 224.179 149.300 225.646 L 144.165 227.113 143.400 226.144 C 141.285 223.465,138.393 218.749,136.589 215.037 L 134.575 210.894 138.406 207.045 L 142.236 203.197 141.707 201.411 L 141.178 199.624 136.292 198.409 C 132.654 197.503,131.290 196.990,130.951 196.399 C 130.428 195.487,130.284 181.691,130.773 179.398 L 131.076 177.978 134.969 177.040 C 141.749 175.407,141.272 175.652,141.752 173.554 L 142.180 171.684 138.358 168.043 L 134.535 164.403 136.357 160.558 C 138.174 156.722,140.943 152.141,143.099 149.404 L 144.238 147.959 149.255 149.384 L 154.273 150.809 155.641 149.430 L 157.009 148.052 155.593 143.139 C 154.445 139.152,154.271 138.113,154.674 137.628 C 156.191 135.800,168.614 128.682,170.301 128.674 C 170.670 128.673,172.456 130.290,174.270 132.268 C 177.744 136.057,177.867 136.122,180.207 135.421 L 181.686 134.978 182.828 130.226 C 183.456 127.612,184.072 125.308,184.197 125.105 C 184.901 123.967,201.961 123.858,203.059 124.985 C 203.214 125.144,203.880 127.414,204.539 130.028 C 205.802 135.044,205.935 135.252,208.126 135.663 C 209.420 135.906,209.673 135.761,212.028 133.427 C 214.724 130.755,214.808 130.495,213.095 130.149 C 209.384 129.399,203.901 124.244,191.759 110.090 C 187.235 104.815,182.376 99.258,180.962 97.741 L 178.392 94.982 175.627 96.088 C 166.355 99.797,157.141 93.806,156.291 83.516 L 156.044 80.519 154.046 80.011 C 146.956 78.207,132.299 76.992,126.873 77.758 M100.108 93.116 C 100.673 93.741,100.732 94.033,100.366 94.399 C 99.785 94.980,98.040 93.454,98.477 92.748 C 98.871 92.110,99.281 92.203,100.108 93.116 M103.705 96.713 C 104.270 97.337,104.328 97.630,103.962 97.996 C 103.382 98.577,101.636 97.050,102.073 96.344 C 102.467 95.706,102.878 95.799,103.705 96.713 M107.701 100.309 C 108.266 100.933,108.324 101.226,107.958 101.592 C 107.378 102.173,105.632 100.647,106.069 99.940 C 106.463 99.303,106.874 99.395,107.701 100.309 M302.498 100.145 C 291.953 102.042,277.192 107.213,271.624 110.959 C 270.516 111.705,269.413 112.247,269.171 112.165 C 268.929 112.083,263.427 114.649,256.943 117.868 C 240.223 126.170,232.523 129.218,225.472 130.327 L 222.240 130.836 224.707 132.194 C 228.373 134.212,233.421 137.944,233.214 138.482 C 233.115 138.741,232.446 141.053,231.727 143.620 L 230.421 148.288 231.687 149.554 L 232.953 150.820 235.458 150.144 C 236.835 149.773,239.159 149.122,240.623 148.699 L 243.284 147.929 245.543 151.067 C 247.705 154.069,251.750 161.392,252.348 163.386 C 252.593 164.204,252.126 164.844,248.964 168.019 C 245.443 171.555,245.305 171.759,245.555 173.090 C 245.967 175.285,246.174 175.416,251.190 176.680 C 253.805 177.338,256.070 178.000,256.223 178.149 C 257.423 179.320,257.338 196.265,256.129 197.012 C 255.918 197.143,253.598 197.765,250.973 198.396 L 246.199 199.543 245.722 201.533 L 245.245 203.523 248.896 206.892 C 250.904 208.745,252.547 210.579,252.547 210.969 C 252.547 212.709,245.462 224.992,243.537 226.590 C 243.123 226.933,241.817 226.702,238.080 225.626 L 233.167 224.210 231.788 225.578 L 230.410 226.946 231.840 231.983 L 233.271 237.020 231.324 238.559 C 228.660 240.665,225.495 242.547,220.806 244.814 L 216.848 246.727 213.197 242.863 L 209.547 238.999 207.770 239.520 C 204.939 240.350,204.849 240.836,204.604 256.523 L 204.396 269.889 196.348 275.704 C 191.922 278.902,188.341 281.563,188.389 281.618 C 188.437 281.672,189.773 281.276,191.358 280.737 C 207.285 275.319,222.027 276.297,254.745 284.941 C 274.430 290.142,282.588 291.846,291.908 292.704 L 294.705 292.961 296.156 291.217 C 300.584 285.893,309.145 284.964,315.017 289.171 L 316.946 290.554 319.612 289.671 C 338.569 283.398,354.446 267.639,354.446 255.097 C 354.446 243.802,348.378 238.160,330.270 232.615 C 306.519 225.342,304.899 218.096,322.444 197.602 C 340.364 176.670,348.130 161.072,349.431 143.396 C 350.870 123.851,339.253 106.827,320.679 101.263 C 317.172 100.213,305.957 99.523,302.498 100.145 M111.449 105.306 C 110.553 106.202,109.087 104.663,109.902 103.682 C 110.372 103.116,110.505 103.135,111.243 103.873 C 111.980 104.609,112.001 104.754,111.449 105.306 M171.029 104.296 C 171.029 105.228,170.851 105.495,170.230 105.495 C 169.608 105.495,169.431 105.228,169.431 104.296 C 169.431 103.363,169.608 103.097,170.230 103.097 C 170.851 103.097,171.029 103.363,171.029 104.296 M114.894 107.902 C 115.459 108.526,115.517 108.818,115.151 109.185 C 114.570 109.765,112.825 108.239,113.262 107.533 C 113.656 106.895,114.067 106.988,114.894 107.902 M171.029 109.690 C 171.029 110.823,170.877 111.089,170.230 111.089 C 169.583 111.089,169.431 110.823,169.431 109.690 C 169.431 108.558,169.583 108.292,170.230 108.292 C 170.877 108.292,171.029 108.558,171.029 109.690 M118.490 111.498 C 119.055 112.122,119.114 112.415,118.747 112.781 C 118.167 113.362,116.422 111.836,116.858 111.129 C 117.252 110.491,117.663 110.584,118.490 111.498 M171.029 114.885 C 171.029 116.017,170.877 116.284,170.230 116.284 C 169.583 116.284,169.431 116.017,169.431 114.885 C 169.431 113.753,169.583 113.487,170.230 113.487 C 170.877 113.487,171.029 113.753,171.029 114.885 M266.959 115.236 C 266.329 115.867,266.035 115.945,265.668 115.578 C 264.948 114.858,266.430 113.303,267.215 113.955 C 267.689 114.347,267.649 114.547,266.959 115.236 M122.486 115.094 C 123.051 115.719,123.110 116.011,122.743 116.378 C 122.163 116.958,120.418 115.432,120.854 114.726 C 121.248 114.088,121.659 114.181,122.486 115.094 M263.560 117.920 C 263.989 118.614,262.649 119.752,262.078 119.181 C 261.724 118.826,261.735 118.568,262.124 118.099 C 262.727 117.373,263.186 117.315,263.560 117.920 M126.234 120.091 C 125.338 120.987,123.873 119.449,124.687 118.467 C 125.157 117.901,125.291 117.920,126.028 118.658 C 126.765 119.395,126.786 119.539,126.234 120.091 M171.029 119.481 C 171.029 120.013,170.763 120.280,170.230 120.280 C 169.697 120.280,169.431 120.013,169.431 119.481 C 169.431 118.948,169.697 118.681,170.230 118.681 C 170.763 118.681,171.029 118.948,171.029 119.481 M259.965 121.519 C 260.402 122.225,258.656 123.751,258.076 123.171 C 257.710 122.804,257.768 122.512,258.333 121.888 C 259.160 120.974,259.571 120.881,259.965 121.519 M129.679 122.687 C 130.244 123.311,130.302 123.604,129.936 123.970 C 129.356 124.551,127.610 123.025,128.047 122.318 C 128.441 121.680,128.852 121.773,129.679 122.687 M256.369 125.115 C 256.805 125.822,255.060 127.348,254.479 126.767 C 254.113 126.401,254.172 126.108,254.737 125.484 C 255.564 124.570,255.974 124.477,256.369 125.115 M133.275 126.283 C 133.840 126.907,133.899 127.200,133.533 127.566 C 132.952 128.147,131.207 126.621,131.643 125.914 C 132.038 125.277,132.448 125.369,133.275 126.283 M252.772 128.712 C 253.209 129.418,251.464 130.944,250.883 130.364 C 250.517 129.997,250.575 129.705,251.140 129.080 C 251.967 128.167,252.378 128.074,252.772 128.712 M137.271 129.880 C 137.836 130.504,137.895 130.796,137.529 131.163 C 136.948 131.743,135.203 130.217,135.639 129.511 C 136.034 128.873,136.444 128.966,137.271 129.880 M248.775 132.706 C 249.204 133.399,247.864 134.538,247.293 133.966 C 246.938 133.612,246.949 133.353,247.339 132.884 C 247.941 132.158,248.401 132.101,248.775 132.706 M141.020 134.876 C 140.124 135.772,138.658 134.234,139.472 133.252 C 139.942 132.686,140.076 132.705,140.814 133.443 C 141.550 134.180,141.571 134.324,141.020 134.876 M245.180 136.304 C 245.616 137.011,243.871 138.537,243.291 137.956 C 242.924 137.590,242.983 137.297,243.548 136.673 C 244.375 135.759,244.786 135.666,245.180 136.304 M144.077 137.098 C 144.489 137.764,143.563 138.528,143.012 137.977 C 142.551 137.516,142.839 136.663,143.457 136.663 C 143.650 136.663,143.930 136.859,144.077 137.098 M108.902 150.285 C 120.385 152.408,124.700 165.879,116.518 174.061 C 108.355 182.224,94.788 177.873,92.670 166.412 C 91.340 159.220,96.616 151.738,104.059 150.262 C 106.366 149.805,106.298 149.804,108.902 150.285 M304.339 151.553 C 321.028 160.139,308.727 185.036,291.858 176.813 C 281.170 171.602,281.891 155.469,293.010 151.074 C 296.086 149.857,301.487 150.086,304.339 151.553 M263.337 164.236 C 263.337 164.883,263.070 165.035,261.938 165.035 C 260.806 165.035,260.539 164.883,260.539 164.236 C 260.539 163.589,260.806 163.437,261.938 163.437 C 263.070 163.437,263.337 163.589,263.337 164.236 M268.531 164.236 C 268.531 164.857,268.265 165.035,267.333 165.035 C 266.400 165.035,266.134 164.857,266.134 164.236 C 266.134 163.614,266.400 163.437,267.333 163.437 C 268.265 163.437,268.531 163.614,268.531 164.236 M273.726 164.236 C 273.726 164.857,273.460 165.035,272.527 165.035 C 271.595 165.035,271.329 164.857,271.329 164.236 C 271.329 163.614,271.595 163.437,272.527 163.437 C 273.460 163.437,273.726 163.614,273.726 164.236 M277.722 164.236 C 277.722 164.680,277.456 165.035,277.123 165.035 C 276.790 165.035,276.523 164.680,276.523 164.236 C 276.523 163.792,276.790 163.437,277.123 163.437 C 277.456 163.437,277.722 163.792,277.722 164.236 M181.321 172.527 C 181.510 186.394,181.650 187.682,181.735 176.324 C 181.781 170.115,181.683 165.035,181.518 165.035 C 181.354 165.034,181.265 168.406,181.321 172.527 M211.788 169.630 C 212.534 170.400,213.234 171.029,213.344 171.029 C 213.453 171.029,212.933 170.400,212.188 169.630 C 211.442 168.861,210.742 168.232,210.632 168.232 C 210.523 168.232,211.043 168.861,211.788 169.630 M97.902 170.355 C 97.902 170.424,98.487 171.008,99.201 171.654 L 100.500 172.827 99.326 171.528 C 98.232 170.318,97.902 170.046,97.902 170.355 M167.956 187.612 C 167.958 188.931,168.033 189.422,168.122 188.704 C 168.211 187.986,168.209 186.907,168.118 186.307 C 168.027 185.706,167.954 186.294,167.956 187.612 M286.523 198.039 C 297.548 202.986,297.572 218.619,286.561 223.707 C 280.660 226.434,273.329 224.555,269.495 219.333 C 260.909 207.635,273.321 192.114,286.523 198.039 M174.226 204.720 C 174.226 204.789,174.810 205.374,175.524 206.019 L 176.823 207.193 175.650 205.894 C 174.555 204.684,174.226 204.412,174.226 204.720 M112.687 210.989 C 112.687 211.611,112.421 211.788,111.489 211.788 C 110.556 211.788,110.290 211.611,110.290 210.989 C 110.290 210.367,110.556 210.190,111.489 210.190 C 112.421 210.190,112.687 210.367,112.687 210.989 M117.882 210.989 C 117.882 211.611,117.616 211.788,116.683 211.788 C 115.751 211.788,115.485 211.611,115.485 210.989 C 115.485 210.367,115.751 210.190,116.683 210.190 C 117.616 210.190,117.882 210.367,117.882 210.989 M123.477 210.989 C 123.477 211.636,123.210 211.788,122.078 211.788 C 120.946 211.788,120.679 211.636,120.679 210.989 C 120.679 210.342,120.946 210.190,122.078 210.190 C 123.210 210.190,123.477 210.342,123.477 210.989 M127.073 210.989 C 127.073 211.433,126.807 211.788,126.474 211.788 C 126.141 211.788,125.874 211.433,125.874 210.989 C 125.874 210.545,126.141 210.190,126.474 210.190 C 126.807 210.190,127.073 210.545,127.073 210.989 M202.387 240.759 C 202.387 256.364,202.437 262.805,202.497 255.074 C 202.558 247.343,202.558 234.576,202.497 226.703 C 202.437 218.829,202.387 225.155,202.387 240.759 M272.128 217.108 C 272.128 217.177,272.712 217.761,273.427 218.407 L 274.725 219.580 273.552 218.282 C 272.458 217.071,272.128 216.799,272.128 217.108 M244.703 237.305 C 245.307 237.972,245.312 238.099,244.758 238.559 C 243.905 239.267,242.311 237.941,243.007 237.102 C 243.602 236.386,243.904 236.422,244.703 237.305 M144.077 237.397 C 144.489 238.064,143.563 238.828,143.012 238.277 C 142.551 237.815,142.839 236.963,143.457 236.963 C 143.650 236.963,143.930 237.159,144.077 237.397 M141.284 240.200 C 141.720 240.907,139.975 242.433,139.395 241.852 C 139.028 241.486,139.087 241.193,139.652 240.569 C 140.479 239.655,140.889 239.562,141.284 240.200 M248.552 242.317 C 248.017 242.853,246.339 241.229,246.747 240.570 C 246.952 240.239,247.321 240.367,247.999 241.004 C 248.656 241.621,248.832 242.037,248.552 242.317 M137.089 245.106 C 136.459 245.737,136.164 245.815,135.798 245.448 C 135.078 244.728,136.560 243.173,137.345 243.825 C 137.818 244.217,137.779 244.417,137.089 245.106 M251.957 244.964 C 252.521 245.589,252.580 245.881,252.214 246.248 C 251.633 246.828,249.888 245.302,250.325 244.596 C 250.719 243.958,251.130 244.051,251.957 244.964 M133.682 247.777 C 134.127 248.497,132.645 249.829,131.997 249.292 C 131.536 248.909,131.556 248.718,132.120 248.095 C 132.883 247.251,133.304 247.166,133.682 247.777 M255.553 248.561 C 256.118 249.185,256.177 249.478,255.810 249.844 C 255.230 250.425,253.485 248.899,253.921 248.192 C 254.315 247.554,254.726 247.647,255.553 248.561 M130.095 251.389 C 130.531 252.095,128.786 253.621,128.206 253.041 C 127.839 252.675,127.898 252.382,128.463 251.758 C 129.290 250.844,129.701 250.751,130.095 251.389 M259.489 252.091 C 260.092 252.757,260.097 252.884,259.543 253.345 C 258.690 254.053,257.096 252.726,257.793 251.887 C 258.387 251.171,258.689 251.207,259.489 252.091 M126.498 254.985 C 126.935 255.692,125.190 257.218,124.609 256.637 C 124.243 256.271,124.302 255.978,124.867 255.354 C 125.694 254.440,126.104 254.348,126.498 254.985 M263.338 257.102 C 262.802 257.638,261.124 256.015,261.532 255.355 C 261.737 255.024,262.107 255.152,262.785 255.789 C 263.441 256.406,263.617 256.823,263.338 257.102 M122.304 259.892 C 121.674 260.522,121.379 260.600,121.013 260.234 C 120.293 259.513,121.774 257.958,122.560 258.610 C 123.033 259.003,122.993 259.202,122.304 259.892 M266.742 259.750 C 267.307 260.374,267.365 260.667,266.999 261.033 C 266.418 261.613,264.673 260.087,265.110 259.381 C 265.504 258.743,265.915 258.836,266.742 259.750 M118.897 262.563 C 119.342 263.282,117.860 264.615,117.212 264.077 C 116.751 263.694,116.770 263.503,117.335 262.880 C 118.098 262.036,118.519 261.951,118.897 262.563 M270.338 263.346 C 270.903 263.970,270.962 264.263,270.596 264.629 C 270.015 265.210,268.270 263.684,268.706 262.977 C 269.101 262.340,269.511 262.432,270.338 263.346 M115.310 266.174 C 115.746 266.881,114.001 268.407,113.420 267.826 C 113.054 267.460,113.113 267.167,113.678 266.543 C 114.505 265.629,114.915 265.536,115.310 266.174 M274.274 266.876 C 274.877 267.542,274.883 267.670,274.328 268.130 C 273.475 268.838,271.882 267.511,272.578 266.673 C 273.172 265.956,273.474 265.992,274.274 266.876 M111.713 269.771 C 112.150 270.477,110.405 272.003,109.824 271.422 C 109.458 271.056,109.516 270.764,110.081 270.139 C 110.908 269.226,111.319 269.133,111.713 269.771 M278.123 271.887 C 277.587 272.423,275.910 270.800,276.317 270.140 C 276.522 269.809,276.892 269.937,277.570 270.574 C 278.227 271.191,278.402 271.608,278.123 271.887 M107.519 274.677 C 106.888 275.307,106.594 275.385,106.228 275.019 C 105.507 274.298,106.989 272.743,107.775 273.395 C 108.248 273.788,108.208 273.987,107.519 274.677 M281.679 275.535 C 280.783 276.431,279.317 274.893,280.132 273.912 C 280.602 273.346,280.735 273.365,281.473 274.103 C 282.210 274.839,282.230 274.984,281.679 275.535 M104.111 277.348 C 104.556 278.068,103.074 279.400,102.427 278.862 C 101.966 278.480,101.985 278.288,102.549 277.665 C 103.313 276.821,103.733 276.736,104.111 277.348 M285.123 278.131 C 285.688 278.756,285.747 279.048,285.381 279.414 C 284.800 279.995,283.055 278.469,283.492 277.763 C 283.886 277.125,284.296 277.218,285.123 278.131 M100.524 280.959 C 100.961 281.666,99.216 283.192,98.635 282.611 C 98.269 282.245,98.328 281.952,98.893 281.328 C 99.720 280.414,100.130 280.322,100.524 280.959 M289.059 281.661 C 289.662 282.328,289.668 282.455,289.113 282.915 C 288.260 283.623,286.667 282.297,287.363 281.458 C 287.958 280.741,288.259 280.777,289.059 281.661 M96.928 284.556 C 97.365 285.262,95.619 286.788,95.039 286.208 C 94.673 285.841,94.731 285.549,95.296 284.925 C 96.123 284.011,96.534 283.918,96.928 284.556 M292.329 284.950 C 292.741 285.616,291.815 286.380,291.264 285.829 C 290.802 285.368,291.091 284.515,291.708 284.515 C 291.902 284.515,292.182 284.711,292.329 284.950 M85.799 287.378 C 94.987 290.810,97.715 303.484,90.764 310.435 C 82.528 318.671,68.916 314.323,66.782 302.775 C 64.855 292.357,75.676 283.595,85.799 287.378 " stroke="none" fill="#b3cbdb" fill-rule="evenodd"></path><path id="path2" d="M188.811 145.905 C 144.901 151.390,138.470 212.960,180.320 227.206 L 183.017 228.124 183.001 220.656 L 182.984 213.187 180.974 212.243 C 162.486 203.567,161.085 176.282,178.527 164.616 C 183.477 161.306,183.179 160.662,183.431 175.225 C 183.549 182.038,183.684 187.644,183.731 187.684 C 183.778 187.723,184.099 188.038,184.444 188.383 C 185.466 189.405,202.200 189.313,203.135 188.280 C 203.720 187.634,203.796 186.139,203.796 175.320 C 203.796 160.472,203.676 160.641,210.598 165.786 C 226.201 177.385,224.257 202.971,207.093 211.920 L 204.196 213.430 204.196 220.653 L 204.196 227.877 205.541 227.658 C 211.545 226.684,221.046 220.302,226.415 213.637 C 237.573 199.786,238.589 179.026,228.812 164.670 C 227.849 163.256,227.491 162.411,227.780 162.233 C 228.405 161.847,226.228 159.334,225.508 159.611 C 224.766 159.895,222.552 157.430,222.802 156.598 C 223.027 155.850,220.371 153.614,219.989 154.231 C 219.857 154.444,218.589 153.825,217.172 152.854 C 209.021 147.274,198.497 144.695,188.811 145.905 " stroke="none" fill="#edbf0e" fill-rule="evenodd"></path><path id="path3" d="M76.026 65.147 C 66.007 70.154,69.519 84.940,80.719 84.906 C 92.174 84.871,95.351 69.734,84.923 64.878 C 81.995 63.515,79.119 63.602,76.026 65.147 M303.196 64.482 C 292.696 68.400,294.520 84.003,305.594 84.997 C 316.939 86.016,321.701 71.399,311.982 65.390 C 309.717 63.990,305.642 63.569,303.196 64.482 M192.713 124.163 C 193.320 124.255,194.219 124.252,194.711 124.157 C 195.202 124.063,194.705 123.987,193.606 123.990 C 192.507 123.993,192.105 124.071,192.713 124.163 M186.914 126.560 C 186.122 126.680,185.742 127.025,185.550 127.799 C 185.403 128.389,184.818 130.649,184.250 132.822 L 183.217 136.772 180.220 137.553 L 177.223 138.333 173.767 134.701 C 171.866 132.703,170.109 131.069,169.861 131.069 C 168.417 131.069,157.235 137.697,156.810 138.804 C 156.695 139.104,157.211 141.478,157.957 144.079 L 159.314 148.810 157.107 150.964 L 154.900 153.119 149.929 151.700 L 144.959 150.280 144.229 151.164 C 143.054 152.588,138.793 159.864,137.862 162.036 L 137.008 164.032 140.781 167.522 L 144.554 171.013 143.697 174.098 L 142.840 177.183 137.854 178.423 L 132.867 179.664 132.545 182.239 C 132.140 185.488,132.511 195.061,133.056 195.398 C 133.281 195.537,135.594 196.162,138.196 196.787 L 142.927 197.924 143.663 200.880 L 144.400 203.837 140.697 207.554 L 136.995 211.272 138.675 214.627 C 140.871 219.012,144.497 224.575,145.160 224.575 C 145.448 224.575,147.773 223.973,150.328 223.237 L 154.974 221.898 157.147 224.072 L 159.321 226.245 157.982 230.891 C 157.246 233.445,156.643 235.771,156.643 236.059 C 156.643 236.721,162.206 240.347,166.592 242.543 L 169.947 244.224 173.650 240.536 L 177.353 236.848 179.967 237.505 C 181.405 237.866,182.686 238.162,182.813 238.162 C 182.941 238.162,182.994 236.341,182.931 234.115 L 182.817 230.068 179.221 228.816 C 154.427 220.181,142.750 191.481,154.503 168.063 C 165.409 146.331,191.727 137.564,213.387 148.445 C 217.670 150.598,220.662 152.655,220.421 153.282 C 220.197 153.867,223.108 156.379,223.527 155.961 C 223.959 155.529,226.594 158.344,226.392 159.021 C 226.156 159.809,227.955 161.894,228.649 161.636 C 229.292 161.398,232.813 167.290,234.337 171.154 C 243.719 194.950,230.284 223.065,206.488 229.430 L 204.595 229.936 204.595 234.039 L 204.595 238.142 205.894 237.890 C 206.608 237.752,207.860 237.407,208.675 237.125 L 210.156 236.611 213.712 240.455 L 217.268 244.299 220.353 242.834 C 222.763 241.689,228.405 238.248,230.667 236.544 C 230.830 236.421,230.324 234.099,229.543 231.385 L 228.122 226.449 230.231 224.314 C 232.695 221.819,232.425 221.853,237.562 223.377 C 239.760 224.028,241.828 224.563,242.158 224.565 C 243.205 224.572,250.150 213.093,250.150 211.357 C 250.150 211.110,248.515 209.353,246.518 207.452 L 242.886 203.996 243.711 201.042 C 244.710 197.465,243.894 198.083,249.483 196.670 C 252.081 196.014,254.328 195.356,254.476 195.208 C 254.852 194.833,255.080 184.156,254.765 181.638 L 254.506 179.564 249.712 178.412 C 244.279 177.107,244.531 177.295,243.605 173.855 L 242.914 171.287 246.575 167.611 C 250.756 163.413,250.673 163.895,248.051 159.041 C 245.680 154.650,242.562 150.163,242.025 150.368 C 241.769 150.467,239.510 151.127,237.007 151.836 L 232.455 153.125 230.283 150.953 L 228.111 148.781 229.363 144.421 C 230.052 142.022,230.703 139.757,230.811 139.386 C 231.094 138.411,223.505 133.417,219.046 131.644 L 217.313 130.954 213.622 134.629 L 209.932 138.305 207.364 137.614 C 203.925 136.688,204.112 136.938,202.812 131.528 L 201.665 126.756 200.233 126.519 C 198.672 126.261,188.685 126.291,186.914 126.560 M173.227 131.469 C 174.085 132.348,174.877 133.067,174.987 133.067 C 175.097 133.067,174.485 132.348,173.626 131.469 C 172.768 130.589,171.976 129.870,171.866 129.870 C 171.756 129.870,172.368 130.589,173.227 131.469 M155.351 149.661 C 154.530 150.424,154.000 151.049,154.173 151.049 C 154.347 151.049,155.099 150.420,155.844 149.650 C 157.584 147.856,157.285 147.862,155.351 149.661 M96.478 154.346 L 95.305 155.644 96.603 154.471 C 97.814 153.377,98.086 153.047,97.777 153.047 C 97.708 153.047,97.124 153.631,96.478 154.346 M306.893 153.172 C 306.893 153.241,307.478 153.825,308.192 154.471 L 309.491 155.644 308.317 154.346 C 307.223 153.135,306.893 152.863,306.893 153.172 M312.197 164.236 C 312.197 165.225,312.275 165.629,312.370 165.135 C 312.465 164.640,312.465 163.831,312.370 163.337 C 312.275 162.842,312.197 163.247,312.197 164.236 M92.400 164.236 C 92.400 165.005,92.483 165.320,92.583 164.935 C 92.684 164.550,92.684 163.921,92.583 163.536 C 92.483 163.152,92.400 163.467,92.400 164.236 M117.176 164.236 C 117.176 165.005,117.258 165.320,117.358 164.935 C 117.459 164.550,117.459 163.921,117.358 163.536 C 117.258 163.152,117.176 163.467,117.176 164.236 M138.645 168.332 C 139.624 169.376,140.479 170.230,140.543 170.230 C 140.843 170.230,140.526 169.871,138.761 168.215 L 136.863 166.434 138.645 168.332 M105.994 174.901 C 106.379 175.001,107.008 175.001,107.393 174.901 C 107.777 174.800,107.463 174.718,106.693 174.718 C 105.924 174.718,105.609 174.800,105.994 174.901 M130.371 183.616 C 130.375 184.496,130.457 184.808,130.552 184.311 C 130.648 183.814,130.644 183.095,130.544 182.713 C 130.444 182.331,130.366 182.737,130.371 183.616 M257.074 187.612 C 257.076 189.151,257.148 189.731,257.235 188.902 C 257.321 188.073,257.320 186.814,257.231 186.105 C 257.143 185.396,257.072 186.074,257.074 187.612 M130.362 191.409 C 130.362 192.178,130.445 192.493,130.545 192.108 C 130.646 191.723,130.646 191.094,130.545 190.709 C 130.445 190.325,130.362 190.639,130.362 191.409 M88.219 196.893 C 88.937 196.982,90.016 196.980,90.617 196.889 C 91.217 196.798,90.629 196.725,89.311 196.727 C 87.992 196.729,87.501 196.804,88.219 196.893 M279.826 196.890 C 280.433 196.982,281.332 196.980,281.824 196.885 C 282.315 196.790,281.818 196.715,280.719 196.718 C 279.620 196.721,279.218 196.798,279.826 196.890 M249.550 207.792 C 250.409 208.671,251.201 209.391,251.311 209.391 C 251.421 209.391,250.808 208.671,249.950 207.792 C 249.092 206.913,248.299 206.194,248.189 206.194 C 248.080 206.194,248.692 206.913,249.550 207.792 M103.211 210.789 C 103.214 211.888,103.292 212.290,103.384 211.683 C 103.475 211.075,103.473 210.176,103.378 209.685 C 103.283 209.193,103.208 209.690,103.211 210.789 M266.653 210.989 C 266.653 212.198,266.728 212.692,266.820 212.088 C 266.911 211.484,266.911 210.495,266.820 209.890 C 266.728 209.286,266.653 209.780,266.653 210.989 M212.787 242.557 C 213.646 243.437,214.438 244.156,214.548 244.156 C 214.658 244.156,214.045 243.437,213.187 242.557 C 212.328 241.678,211.536 240.959,211.426 240.959 C 211.316 240.959,211.929 241.678,212.787 242.557 M204.373 257.742 C 204.373 264.446,204.428 267.188,204.495 263.836 C 204.562 260.485,204.562 255.000,204.495 251.648 C 204.428 248.297,204.373 251.039,204.373 257.742 M76.523 290.856 C 64.123 296.509,72.234 315.799,84.744 310.406 C 95.262 305.871,92.137 290.127,80.719 290.127 C 79.057 290.127,77.547 290.390,76.523 290.856 M302.983 290.612 C 301.195 291.185,298.245 293.857,297.252 295.804 C 292.659 304.806,302.777 314.729,311.618 309.895 C 323.091 303.622,315.473 286.610,302.983 290.612 M80.020 314.761 C 80.405 314.861,81.034 314.861,81.419 314.761 C 81.803 314.660,81.489 314.578,80.719 314.578 C 79.950 314.578,79.635 314.660,80.020 314.761 " stroke="none" fill="#649bbb" fill-rule="evenodd"></path><path id="path4" d="M94.938 88.969 C 94.526 90.042,95.893 91.292,96.650 90.534 C 97.183 90.002,97.168 89.845,96.515 89.123 C 95.625 88.140,95.270 88.105,94.938 88.969 M291.085 88.750 C 290.936 88.991,291.097 89.470,291.441 89.814 C 292.275 90.648,293.606 89.753,292.863 88.858 C 292.317 88.200,291.457 88.148,291.085 88.750 M214.139 90.462 C 204.937 93.750,203.900 105.545,212.443 109.739 C 221.248 114.060,230.560 104.964,226.424 96.082 C 224.271 91.457,218.606 88.865,214.139 90.462 M287.783 92.033 C 286.299 93.612,287.616 94.951,289.157 93.429 C 290.075 92.523,290.165 92.256,289.729 91.731 C 289.044 90.905,288.808 90.942,287.783 92.033 M98.477 92.748 C 98.040 93.454,99.785 94.980,100.366 94.399 C 100.732 94.033,100.673 93.741,100.108 93.116 C 99.281 92.203,98.871 92.110,98.477 92.748 M284.108 95.713 C 283.218 96.661,283.202 96.760,283.841 97.399 C 284.796 98.353,286.994 96.366,286.133 95.328 C 285.440 94.492,285.214 94.535,284.108 95.713 M102.073 96.344 C 101.636 97.050,103.382 98.577,103.962 97.996 C 104.328 97.630,104.270 97.337,103.705 96.713 C 102.878 95.799,102.467 95.706,102.073 96.344 M280.308 99.513 C 279.619 100.274,279.616 100.366,280.248 100.999 C 281.075 101.826,282.820 100.466,282.386 99.334 C 282.053 98.466,281.188 98.541,280.308 99.513 M106.069 99.940 C 105.632 100.647,107.378 102.173,107.958 101.592 C 108.324 101.226,108.266 100.933,107.701 100.309 C 106.874 99.395,106.463 99.303,106.069 99.940 M276.712 103.109 C 276.023 103.871,276.019 103.963,276.652 104.595 C 277.600 105.543,279.395 103.949,278.540 102.919 C 277.865 102.106,277.594 102.135,276.712 103.109 M109.902 103.682 C 109.087 104.663,110.553 106.202,111.449 105.306 C 112.001 104.754,111.980 104.609,111.243 103.873 C 110.505 103.135,110.372 103.116,109.902 103.682 M169.431 104.296 C 169.431 105.228,169.608 105.495,170.230 105.495 C 170.851 105.495,171.029 105.228,171.029 104.296 C 171.029 103.363,170.851 103.097,170.230 103.097 C 169.608 103.097,169.431 103.363,169.431 104.296 M272.998 106.818 C 271.514 108.397,272.831 109.737,274.371 108.215 C 275.289 107.308,275.379 107.041,274.944 106.516 C 274.259 105.690,274.023 105.727,272.998 106.818 M113.262 107.533 C 112.825 108.239,114.570 109.765,115.151 109.185 C 115.517 108.818,115.459 108.526,114.894 107.902 C 114.067 106.988,113.656 106.895,113.262 107.533 M169.431 109.690 C 169.431 110.823,169.583 111.089,170.230 111.089 C 170.877 111.089,171.029 110.823,171.029 109.690 C 171.029 108.558,170.877 108.292,170.230 108.292 C 169.583 108.292,169.431 108.558,169.431 109.690 M269.358 110.460 C 267.823 112.095,269.103 112.950,270.876 111.473 C 271.654 110.825,271.734 110.578,271.327 110.088 C 270.659 109.283,270.422 109.328,269.358 110.460 M116.858 111.129 C 116.422 111.836,118.167 113.362,118.747 112.781 C 119.114 112.415,119.055 112.122,118.490 111.498 C 117.663 110.584,117.252 110.491,116.858 111.129 M169.431 114.885 C 169.431 116.017,169.583 116.284,170.230 116.284 C 170.877 116.284,171.029 116.017,171.029 114.885 C 171.029 113.753,170.877 113.487,170.230 113.487 C 169.583 113.487,169.431 113.753,169.431 114.885 M265.924 114.297 C 264.832 115.504,265.807 116.389,266.959 115.236 C 267.649 114.547,267.689 114.347,267.215 113.955 C 266.776 113.590,266.497 113.664,265.924 114.297 M120.854 114.726 C 120.418 115.432,122.163 116.958,122.743 116.378 C 123.110 116.011,123.051 115.719,122.486 115.094 C 121.659 114.181,121.248 114.088,120.854 114.726 M262.124 118.099 C 261.735 118.568,261.724 118.826,262.078 119.181 C 262.649 119.752,263.989 118.614,263.560 117.920 C 263.186 117.315,262.727 117.373,262.124 118.099 M124.687 118.467 C 123.873 119.449,125.338 120.987,126.234 120.091 C 126.786 119.539,126.765 119.395,126.028 118.658 C 125.291 117.920,125.157 117.901,124.687 118.467 M169.431 119.481 C 169.431 120.013,169.697 120.280,170.230 120.280 C 170.763 120.280,171.029 120.013,171.029 119.481 C 171.029 118.948,170.763 118.681,170.230 118.681 C 169.697 118.681,169.431 118.948,169.431 119.481 M258.333 121.888 C 257.768 122.512,257.710 122.804,258.076 123.171 C 258.656 123.751,260.402 122.225,259.965 121.519 C 259.571 120.881,259.160 120.974,258.333 121.888 M128.047 122.318 C 127.610 123.025,129.356 124.551,129.936 123.970 C 130.302 123.604,130.244 123.311,129.679 122.687 C 128.852 121.773,128.441 121.680,128.047 122.318 M254.737 125.484 C 254.172 126.108,254.113 126.401,254.479 126.767 C 255.060 127.348,256.805 125.822,256.369 125.115 C 255.974 124.477,255.564 124.570,254.737 125.484 M131.643 125.914 C 131.207 126.621,132.952 128.147,133.533 127.566 C 133.899 127.200,133.840 126.907,133.275 126.283 C 132.448 125.369,132.038 125.277,131.643 125.914 M251.140 129.080 C 250.575 129.705,250.517 129.997,250.883 130.364 C 251.464 130.944,253.209 129.418,252.772 128.712 C 252.378 128.074,251.967 128.167,251.140 129.080 M135.639 129.511 C 135.203 130.217,136.948 131.743,137.529 131.163 C 137.895 130.796,137.836 130.504,137.271 129.880 C 136.444 128.966,136.034 128.873,135.639 129.511 M247.339 132.884 C 246.949 133.353,246.938 133.612,247.293 133.966 C 247.864 134.538,249.204 133.399,248.775 132.706 C 248.401 132.101,247.941 132.158,247.339 132.884 M139.472 133.252 C 138.658 134.234,140.124 135.772,141.020 134.876 C 141.571 134.324,141.550 134.180,140.814 133.443 C 140.076 132.705,139.942 132.686,139.472 133.252 M243.548 136.673 C 242.983 137.297,242.924 137.590,243.291 137.956 C 243.871 138.537,245.616 137.011,245.180 136.304 C 244.786 135.666,244.375 135.759,243.548 136.673 M142.836 137.098 C 142.424 137.764,143.350 138.528,143.901 137.977 C 144.362 137.516,144.074 136.663,143.457 136.663 C 143.263 136.663,142.983 136.859,142.836 137.098 M103.278 154.376 C 97.372 156.652,94.677 162.930,97.244 168.432 C 101.990 178.602,116.865 175.421,116.865 164.236 C 116.865 157.050,109.746 151.884,103.278 154.376 M260.539 164.236 C 260.539 164.883,260.806 165.035,261.938 165.035 C 263.070 165.035,263.337 164.883,263.337 164.236 C 263.337 163.589,263.070 163.437,261.938 163.437 C 260.806 163.437,260.539 163.589,260.539 164.236 M266.134 164.236 C 266.134 164.857,266.400 165.035,267.333 165.035 C 268.265 165.035,268.531 164.857,268.531 164.236 C 268.531 163.614,268.265 163.437,267.333 163.437 C 266.400 163.437,266.134 163.614,266.134 164.236 M271.329 164.236 C 271.329 164.857,271.595 165.035,272.527 165.035 C 273.460 165.035,273.726 164.857,273.726 164.236 C 273.726 163.614,273.460 163.437,272.527 163.437 C 271.595 163.437,271.329 163.614,271.329 164.236 M276.523 164.236 C 276.523 164.680,276.790 165.035,277.123 165.035 C 277.456 165.035,277.722 164.680,277.722 164.236 C 277.722 163.792,277.456 163.437,277.123 163.437 C 276.790 163.437,276.523 163.792,276.523 164.236 M205.794 176.641 L 205.794 188.292 204.436 189.650 L 203.077 191.009 193.735 191.009 C 180.624 191.009,181.419 191.962,181.419 176.237 C 181.419 170.094,181.263 165.435,181.059 165.435 C 180.228 165.435,175.633 169.312,173.847 171.519 C 163.719 184.037,167.578 202.861,181.818 210.406 L 184.815 211.994 184.917 246.457 C 184.973 265.411,185.124 280.919,185.252 280.919 C 185.379 280.919,189.244 278.202,193.841 274.881 L 202.198 268.843 202.204 240.815 C 202.207 225.400,202.350 212.567,202.522 212.297 C 202.693 212.027,203.904 211.266,205.213 210.606 C 222.947 201.658,224.009 175.550,207.039 165.712 L 205.794 164.990 205.794 176.641 M278.815 200.641 C 269.019 202.908,267.334 215.696,276.233 220.236 C 284.017 224.206,293.211 216.538,290.763 208.118 C 289.272 202.988,283.710 199.508,278.815 200.641 M110.290 210.989 C 110.290 211.611,110.556 211.788,111.489 211.788 C 112.421 211.788,112.687 211.611,112.687 210.989 C 112.687 210.367,112.421 210.190,111.489 210.190 C 110.556 210.190,110.290 210.367,110.290 210.989 M115.485 210.989 C 115.485 211.611,115.751 211.788,116.683 211.788 C 117.616 211.788,117.882 211.611,117.882 210.989 C 117.882 210.367,117.616 210.190,116.683 210.190 C 115.751 210.190,115.485 210.367,115.485 210.989 M120.679 210.989 C 120.679 211.636,120.946 211.788,122.078 211.788 C 123.210 211.788,123.477 211.636,123.477 210.989 C 123.477 210.342,123.210 210.190,122.078 210.190 C 120.946 210.190,120.679 210.342,120.679 210.989 M125.874 210.989 C 125.874 211.433,126.141 211.788,126.474 211.788 C 126.807 211.788,127.073 211.433,127.073 210.989 C 127.073 210.545,126.807 210.190,126.474 210.190 C 126.141 210.190,125.874 210.545,125.874 210.989 M243.007 237.102 C 242.311 237.941,243.905 239.267,244.758 238.559 C 245.312 238.099,245.307 237.972,244.703 237.305 C 243.904 236.422,243.602 236.386,243.007 237.102 M142.836 237.397 C 142.424 238.064,143.350 238.828,143.901 238.277 C 144.362 237.815,144.074 236.963,143.457 236.963 C 143.263 236.963,142.983 237.159,142.836 237.397 M139.652 240.569 C 139.087 241.193,139.028 241.486,139.395 241.852 C 139.975 242.433,141.720 240.907,141.284 240.200 C 140.889 239.562,140.479 239.655,139.652 240.569 M246.747 240.570 C 246.339 241.229,248.017 242.853,248.552 242.317 C 248.832 242.037,248.656 241.621,247.999 241.004 C 247.321 240.367,246.952 240.239,246.747 240.570 M136.054 244.167 C 134.961 245.374,135.936 246.259,137.089 245.106 C 137.779 244.417,137.818 244.217,137.345 243.825 C 136.906 243.460,136.627 243.534,136.054 244.167 M250.325 244.596 C 249.888 245.302,251.633 246.828,252.214 246.248 C 252.580 245.881,252.521 245.589,251.957 244.964 C 251.130 244.051,250.719 243.958,250.325 244.596 M132.120 248.095 C 131.556 248.718,131.536 248.909,131.997 249.292 C 132.645 249.829,134.127 248.497,133.682 247.777 C 133.304 247.166,132.883 247.251,132.120 248.095 M253.921 248.192 C 253.485 248.899,255.230 250.425,255.810 249.844 C 256.177 249.478,256.118 249.185,255.553 248.561 C 254.726 247.647,254.315 247.554,253.921 248.192 M128.463 251.758 C 127.898 252.382,127.839 252.675,128.206 253.041 C 128.786 253.621,130.531 252.095,130.095 251.389 C 129.701 250.751,129.290 250.844,128.463 251.758 M257.793 251.887 C 257.096 252.726,258.690 254.053,259.543 253.345 C 260.097 252.884,260.092 252.757,259.489 252.091 C 258.689 251.207,258.387 251.171,257.793 251.887 M124.867 255.354 C 124.302 255.978,124.243 256.271,124.609 256.637 C 125.190 257.218,126.935 255.692,126.498 254.985 C 126.104 254.348,125.694 254.440,124.867 255.354 M261.532 255.355 C 261.124 256.015,262.802 257.638,263.338 257.102 C 263.617 256.823,263.441 256.406,262.785 255.789 C 262.107 255.152,261.737 255.024,261.532 255.355 M121.269 258.952 C 120.176 260.159,121.151 261.044,122.304 259.892 C 122.993 259.202,123.033 259.003,122.560 258.610 C 122.120 258.245,121.842 258.319,121.269 258.952 M265.110 259.381 C 264.673 260.087,266.418 261.613,266.999 261.033 C 267.365 260.667,267.307 260.374,266.742 259.750 C 265.915 258.836,265.504 258.743,265.110 259.381 M117.335 262.880 C 116.770 263.503,116.751 263.694,117.212 264.077 C 117.860 264.615,119.342 263.282,118.897 262.563 C 118.519 261.951,118.098 262.036,117.335 262.880 M268.706 262.977 C 268.270 263.684,270.015 265.210,270.596 264.629 C 270.962 264.263,270.903 263.970,270.338 263.346 C 269.511 262.432,269.101 262.340,268.706 262.977 M113.678 266.543 C 113.113 267.167,113.054 267.460,113.420 267.826 C 114.001 268.407,115.746 266.881,115.310 266.174 C 114.915 265.536,114.505 265.629,113.678 266.543 M272.578 266.673 C 271.882 267.511,273.475 268.838,274.328 268.130 C 274.883 267.670,274.877 267.542,274.274 266.876 C 273.474 265.992,273.172 265.956,272.578 266.673 M110.081 270.139 C 109.516 270.764,109.458 271.056,109.824 271.422 C 110.405 272.003,112.150 270.477,111.713 269.771 C 111.319 269.133,110.908 269.226,110.081 270.139 M276.317 270.140 C 275.910 270.800,277.587 272.423,278.123 271.887 C 278.402 271.608,278.227 271.191,277.570 270.574 C 276.892 269.937,276.522 269.809,276.317 270.140 M106.484 273.737 C 105.391 274.944,106.366 275.830,107.519 274.677 C 108.208 273.987,108.248 273.788,107.775 273.395 C 107.335 273.030,107.057 273.104,106.484 273.737 M280.132 273.912 C 279.317 274.893,280.783 276.431,281.679 275.535 C 282.230 274.984,282.210 274.839,281.473 274.103 C 280.735 273.365,280.602 273.346,280.132 273.912 M102.549 277.665 C 101.985 278.288,101.966 278.480,102.427 278.862 C 103.074 279.400,104.556 278.068,104.111 277.348 C 103.733 276.736,103.313 276.821,102.549 277.665 M283.492 277.763 C 283.055 278.469,284.800 279.995,285.381 279.414 C 285.747 279.048,285.688 278.756,285.123 278.131 C 284.296 277.218,283.886 277.125,283.492 277.763 M98.893 281.328 C 98.328 281.952,98.269 282.245,98.635 282.611 C 99.216 283.192,100.961 281.666,100.524 280.959 C 100.130 280.322,99.720 280.414,98.893 281.328 M287.363 281.458 C 286.667 282.297,288.260 283.623,289.113 282.915 C 289.668 282.455,289.662 282.328,289.059 281.661 C 288.259 280.777,287.958 280.741,287.363 281.458 M95.296 284.925 C 94.731 285.549,94.673 285.841,95.039 286.208 C 95.619 286.788,97.365 285.262,96.928 284.556 C 96.534 283.918,96.123 284.011,95.296 284.925 M291.087 284.950 C 290.676 285.616,291.602 286.380,292.153 285.829 C 292.614 285.368,292.326 284.515,291.708 284.515 C 291.514 284.515,291.235 284.711,291.087 284.950 " stroke="none" fill="#f4f6f9" fill-rule="evenodd"></path></g></svg>